<svg viewBox="0 0 1106.2000732421875 400" xmlns="http://www.w3.org/2000/svg"><g><g><g><g><g><line x1="74.75" y1="374" x2="69.75" y2="374" style="visibility: inherit;" fill="rgb(0, 0, 0)" stroke="rgb(204, 204, 204)" stroke-width="1px"></line><line x1="74.75" y1="342.8333333333333" x2="69.75" y2="342.8333333333333" style="visibility: inherit;" fill="rgb(0, 0, 0)" stroke="rgb(204, 204, 204)" stroke-width="1px"></line><line x1="74.75" y1="311.6666666666667" x2="69.75" y2="311.6666666666667" style="visibility: inherit;" fill="rgb(0, 0, 0)" stroke="rgb(204, 204, 204)" stroke-width="1px"></line><line x1="74.75" y1="280.5" x2="69.75" y2="280.5" style="visibility: inherit;" fill="rgb(0, 0, 0)" stroke="rgb(204, 204, 204)" stroke-width="1px"></line><line x1="74.75" y1="249.33333333333337" x2="69.75" y2="249.33333333333337" style="visibility: inherit;" fill="rgb(0, 0, 0)" stroke="rgb(204, 204, 204)" stroke-width="1px"></line><line x1="74.75" y1="218.1666666666667" x2="69.75" y2="218.1666666666667" style="visibility: inherit;" fill="rgb(0, 0, 0)" stroke="rgb(204, 204, 204)" stroke-width="1px"></line><line x1="74.75" y1="187.00000000000009" x2="69.75" y2="187.00000000000009" style="visibility: inherit;" fill="rgb(0, 0, 0)" stroke="rgb(204, 204, 204)" stroke-width="1px"></line><line x1="74.75" y1="155.83333333333331" x2="69.75" y2="155.83333333333331" style="visibility: inherit;" fill="rgb(0, 0, 0)" stroke="rgb(204, 204, 204)" stroke-width="1px"></line><line x1="74.75" y1="124.66666666666664" x2="69.75" y2="124.66666666666664" style="visibility: inherit;" fill="rgb(0, 0, 0)" stroke="rgb(204, 204, 204)" stroke-width="1px"></line><line x1="74.75" y1="93.5" x2="69.75" y2="93.5" style="visibility: inherit;" fill="rgb(0, 0, 0)" stroke="rgb(204, 204, 204)" stroke-width="1px"></line><line x1="74.75" y1="62.33333333333332" x2="69.75" y2="62.33333333333332" style="visibility: inherit;" fill="rgb(0, 0, 0)" stroke="rgb(204, 204, 204)" stroke-width="1px"></line><line x1="74.75" y1="31.166666666666682" x2="69.75" y2="31.166666666666682" style="visibility: inherit;" fill="rgb(0, 0, 0)" stroke="rgb(204, 204, 204)" stroke-width="1px"></line><line x1="74.75" y1="0" x2="69.75" y2="0" style="visibility: inherit;" fill="rgb(0, 0, 0)" stroke="rgb(204, 204, 204)" stroke-width="1px"></line></g><g transform="translate(64.75, 0)"><text x="0" y="374" dx="0em" dy="0.3em" style="text-anchor: end; visibility: hidden; font-family: Roboto, sans-serif; font-size: 12px; font-weight: 200;" fill="rgb(33, 33, 33)" stroke="none" stroke-width="1px">4.5e-5</text><text x="0" y="342.8333333333333" dx="0em" dy="0.3em" style="text-anchor: end; visibility: inherit; font-family: Roboto, sans-serif; font-size: 12px; font-weight: 200;" fill="rgb(33, 33, 33)" stroke="none" stroke-width="1px">5e-5</text><text x="0" y="311.6666666666667" dx="0em" dy="0.3em" style="text-anchor: end; visibility: inherit; font-family: Roboto, sans-serif; font-size: 12px; font-weight: 200;" fill="rgb(33, 33, 33)" stroke="none" stroke-width="1px">5.5e-5</text><text x="0" y="280.5" dx="0em" dy="0.3em" style="text-anchor: end; visibility: inherit; font-family: Roboto, sans-serif; font-size: 12px; font-weight: 200;" fill="rgb(33, 33, 33)" stroke="none" stroke-width="1px">6e-5</text><text x="0" y="249.33333333333337" dx="0em" dy="0.3em" style="text-anchor: end; visibility: inherit; font-family: Roboto, sans-serif; font-size: 12px; font-weight: 200;" fill="rgb(33, 33, 33)" stroke="none" stroke-width="1px">6.5e-5</text><text x="0" y="218.1666666666667" dx="0em" dy="0.3em" style="text-anchor: end; visibility: inherit; font-family: Roboto, sans-serif; font-size: 12px; font-weight: 200;" fill="rgb(33, 33, 33)" stroke="none" stroke-width="1px">7e-5</text><text x="0" y="187.00000000000009" dx="0em" dy="0.3em" style="text-anchor: end; visibility: inherit; font-family: Roboto, sans-serif; font-size: 12px; font-weight: 200;" fill="rgb(33, 33, 33)" stroke="none" stroke-width="1px">7.5e-5</text><text x="0" y="155.83333333333331" dx="0em" dy="0.3em" style="text-anchor: end; visibility: inherit; font-family: Roboto, sans-serif; font-size: 12px; font-weight: 200;" fill="rgb(33, 33, 33)" stroke="none" stroke-width="1px">8e-5</text><text x="0" y="124.66666666666664" dx="0em" dy="0.3em" style="text-anchor: end; visibility: inherit; font-family: Roboto, sans-serif; font-size: 12px; font-weight: 200;" fill="rgb(33, 33, 33)" stroke="none" stroke-width="1px">8.5e-5</text><text x="0" y="93.5" dx="0em" dy="0.3em" style="text-anchor: end; visibility: inherit; font-family: Roboto, sans-serif; font-size: 12px; font-weight: 200;" fill="rgb(33, 33, 33)" stroke="none" stroke-width="1px">9e-5</text><text x="0" y="62.33333333333332" dx="0em" dy="0.3em" style="text-anchor: end; visibility: inherit; font-family: Roboto, sans-serif; font-size: 12px; font-weight: 200;" fill="rgb(33, 33, 33)" stroke="none" stroke-width="1px">9.5e-5</text><text x="0" y="31.166666666666682" dx="0em" dy="0.3em" style="text-anchor: end; visibility: inherit; font-family: Roboto, sans-serif; font-size: 12px; font-weight: 200;" fill="rgb(33, 33, 33)" stroke="none" stroke-width="1px">1e-4</text><text x="0" y="0" dx="0em" dy="0.3em" style="text-anchor: end; visibility: hidden; font-family: Roboto, sans-serif; font-size: 12px; font-weight: 200;" fill="rgb(33, 33, 33)" stroke="none" stroke-width="1px">1.05e-4</text></g><line x1="74.75" y1="0" x2="74.75" y2="374" fill="rgb(0, 0, 0)" stroke="rgb(204, 204, 204)" stroke-width="1px"></line></g></g><g transform="translate(74, 0)" clip-path="url(#clip_0)"><clipPath id="clip_0"><rect width="1031" height="374"></rect></clipPath><g><g><g><line x1="0" y1="0" x2="0" y2="374" fill="rgb(0, 0, 0)" stroke="rgb(66, 66, 66)" stroke-width="1px" opacity="0.25"></line><line x1="85.95416666666667" y1="0" x2="85.95416666666667" y2="374" fill="rgb(0, 0, 0)" stroke="rgb(66, 66, 66)" stroke-width="1px" opacity="0.25"></line><line x1="171.90833333333333" y1="0" x2="171.90833333333333" y2="374" fill="rgb(0, 0, 0)" stroke="rgb(66, 66, 66)" stroke-width="1px" opacity="0.25"></line><line x1="257.8625" y1="0" x2="257.8625" y2="374" fill="rgb(0, 0, 0)" stroke="rgb(66, 66, 66)" stroke-width="1px" opacity="0.25"></line><line x1="343.81666666666666" y1="0" x2="343.81666666666666" y2="374" fill="rgb(0, 0, 0)" stroke="rgb(66, 66, 66)" stroke-width="1px" opacity="0.25"></line><line x1="429.77083333333337" y1="0" x2="429.77083333333337" y2="374" fill="rgb(0, 0, 0)" stroke="rgb(66, 66, 66)" stroke-width="1px" opacity="0.25"></line><line x1="515.725" y1="0" x2="515.725" y2="374" fill="rgb(0, 0, 0)" stroke="rgb(66, 66, 66)" stroke-width="1px" opacity="0.25"></line><line x1="601.6791666666668" y1="0" x2="601.6791666666668" y2="374" fill="rgb(0, 0, 0)" stroke="rgb(66, 66, 66)" stroke-width="1px" opacity="0.25"></line><line x1="687.6333333333333" y1="0" x2="687.6333333333333" y2="374" fill="rgb(0, 0, 0)" stroke="rgb(66, 66, 66)" stroke-width="1px" opacity="0.25"></line><line x1="773.5875000000001" y1="0" x2="773.5875000000001" y2="374" fill="rgb(0, 0, 0)" stroke="rgb(66, 66, 66)" stroke-width="1px" opacity="0.25"></line><line x1="859.5416666666667" y1="0" x2="859.5416666666667" y2="374" fill="rgb(0, 0, 0)" stroke="rgb(66, 66, 66)" stroke-width="1px" opacity="0.25"></line><line x1="945.4958333333333" y1="0" x2="945.4958333333333" y2="374" fill="rgb(0, 0, 0)" stroke="rgb(66, 66, 66)" stroke-width="1px" opacity="0.25"></line><line x1="1031.45" y1="0" x2="1031.45" y2="374" fill="rgb(0, 0, 0)" stroke="rgb(66, 66, 66)" stroke-width="1px" opacity="0.25"></line></g><g><line x1="0" y1="374" x2="1031.45" y2="374" fill="rgb(0, 0, 0)" stroke="rgb(66, 66, 66)" stroke-width="1px" opacity="0.25"></line><line x1="0" y1="342.8333333333333" x2="1031.45" y2="342.8333333333333" fill="rgb(0, 0, 0)" stroke="rgb(66, 66, 66)" stroke-width="1px" opacity="0.25"></line><line x1="0" y1="311.6666666666667" x2="1031.45" y2="311.6666666666667" fill="rgb(0, 0, 0)" stroke="rgb(66, 66, 66)" stroke-width="1px" opacity="0.25"></line><line x1="0" y1="280.5" x2="1031.45" y2="280.5" fill="rgb(0, 0, 0)" stroke="rgb(66, 66, 66)" stroke-width="1px" opacity="0.25"></line><line x1="0" y1="249.33333333333337" x2="1031.45" y2="249.33333333333337" fill="rgb(0, 0, 0)" stroke="rgb(66, 66, 66)" stroke-width="1px" opacity="0.25"></line><line x1="0" y1="218.1666666666667" x2="1031.45" y2="218.1666666666667" fill="rgb(0, 0, 0)" stroke="rgb(66, 66, 66)" stroke-width="1px" opacity="0.25"></line><line x1="0" y1="187.00000000000009" x2="1031.45" y2="187.00000000000009" fill="rgb(0, 0, 0)" stroke="rgb(66, 66, 66)" stroke-width="1px" opacity="0.25"></line><line x1="0" y1="155.83333333333331" x2="1031.45" y2="155.83333333333331" fill="rgb(0, 0, 0)" stroke="rgb(66, 66, 66)" stroke-width="1px" opacity="0.25"></line><line x1="0" y1="124.66666666666664" x2="1031.45" y2="124.66666666666664" fill="rgb(0, 0, 0)" stroke="rgb(66, 66, 66)" stroke-width="1px" opacity="0.25"></line><line x1="0" y1="93.5" x2="1031.45" y2="93.5" fill="rgb(0, 0, 0)" stroke="rgb(66, 66, 66)" stroke-width="1px" opacity="0.25"></line><line x1="0" y1="62.33333333333332" x2="1031.45" y2="62.33333333333332" fill="rgb(0, 0, 0)" stroke="rgb(66, 66, 66)" stroke-width="1px" opacity="0.25"></line><line x1="0" y1="31.166666666666682" x2="1031.45" y2="31.166666666666682" fill="rgb(0, 0, 0)" stroke="rgb(66, 66, 66)" stroke-width="1px" opacity="0.25"></line><line x1="0" y1="0" x2="1031.45" y2="0" fill="rgb(0, 0, 0)" stroke="rgb(66, 66, 66)" stroke-width="1px" opacity="0.25"></line></g></g></g><g><g><line x1="0" y1="654.5" x2="1031.45" y2="654.5" fill="rgb(0, 0, 0)" stroke="rgb(153, 153, 153)" stroke-width="1.5px"></line></g></g><g><g><line x1="85.95416666666667" y1="0" x2="85.95416666666667" y2="374" fill="rgb(0, 0, 0)" stroke="rgb(153, 153, 153)" stroke-width="1.5px"></line></g></g><g><g><g><g><g><path stroke="rgb(255, 112, 67)" stroke-width="2px" d="M85.95416666666667,31.166682413391175L94.54958333333333,31.166682413391175L103.14500000000001,31.166682413391175L111.74041666666668,31.166682413391175L120.33583333333334,31.166682413391175L128.93125,31.166682413391175L137.52666666666667,31.166682413391175L146.12208333333334,31.166682413391175L154.7175,31.166682413391175L163.31291666666667,31.166682413391175L171.90833333333333,31.166682413391175L180.50375,31.166682413391175L189.09916666666666,31.166682413391175L197.69458333333336,31.166682413391175L206.29000000000002,31.166682413391175L214.88541666666669,31.166682413391175L223.48083333333335,31.166682413391175L232.07625000000002,31.166682413391175L240.67166666666668,31.166682413391175L249.26708333333335,31.166682413391175L257.8625,31.166682413391175L266.45791666666673,31.166682413391175L275.05333333333334,31.166682413391175L283.64875000000006,31.166682413391175L292.2441666666667,31.166682413391175L300.8395833333334,31.166682413391175L309.435,31.166682413391175L318.0304166666667,31.166682413391175L326.62583333333333,31.166682413391175L335.22125000000005,31.166682413391175L343.81666666666666,31.166682413391175L352.4120833333334,31.166682413391175L361.0075,31.166682413391175L369.6029166666667,31.166682413391175L378.1983333333333,31.166682413391175L386.79375000000005,31.166682413391175L395.3891666666667,31.166682413391175L403.9845833333333,31.166682413391175L412.58000000000004,31.166682413391175L421.17541666666665,218.16665501263924L429.77083333333337,218.16665501263924L438.36625,218.16665501263924L446.9616666666667,218.16665501263924L455.5570833333333,218.16665501263924L464.15250000000003,218.16665501263924L472.74791666666664,218.16665501263924L481.34333333333336,218.16665501263924L489.93874999999997,218.16665501263924L498.5341666666667,218.16665501263924L507.1295833333333,218.16665501263924L515.725,218.16665501263924L524.3204166666667,218.16665501263924L532.9158333333335,218.16665501263924L541.51125,218.16665501263924L550.1066666666667,218.16665501263924L558.7020833333333,218.16665501263924L567.2975000000001,218.16665501263924L575.8929166666667,218.16665501263924L584.4883333333333,218.16665501263924L593.08375,218.16665501263924L601.6791666666668,218.16665501263924L610.2745833333333,218.16665501263924L618.87,218.16665501263924L627.4654166666667,218.16665501263924L636.0608333333334,218.16665501263924L644.65625,218.16665501263924L653.2516666666667,218.16665501263924L661.8470833333334,218.16665501263924L670.4425000000001,218.16665501263924L679.0379166666667,218.16665501263924L687.6333333333333,218.16665501263924L696.2287500000001,218.16665501263924L704.8241666666668,218.16665501263924L713.4195833333333,218.16665501263924L722.015,218.16665501263924L730.6104166666668,218.16665501263924L739.2058333333334,218.16665501263924L747.80125,218.16665501263924L756.3966666666666,218.16665501263924L764.9920833333334,349.06667665023514L773.5875000000001,349.06667665023514L782.1829166666666,349.06667665023514L790.7783333333334,349.06667665023514L799.3737500000001,349.06667665023514L807.9691666666666,349.06667665023514L816.5645833333333,349.06667665023514L825.1600000000001,349.06667665023514L833.7554166666667,349.06667665023514L842.3508333333333,349.06667665023514L850.94625,349.06667665023514L859.5416666666667,349.06667665023514L868.1370833333334,349.06667665023514L876.7325,349.06667665023514L885.3279166666666,349.06667665023514L893.9233333333334,349.06667665023514L902.5187500000001,349.06667665023514L911.1141666666666,349.06667665023514L919.7095833333334,349.06667665023514L928.3050000000001,349.06667665023514L936.9004166666667,349.06667665023514" style="fill: none;" fill="none"></path></g></g></g></g></g><g><g opacity="0.878201"><span fill="rgb(0, 0, 0)" stroke="none" stroke-width="1px">Alt + Scroll to Zoom</span></g></g></g><g transform="translate(74, 374)" clip-path="url(#clip_1)"><clipPath id="clip_1"><rect width="1031" height="26"></rect></clipPath><g><g><line x1="0" y1="0" x2="0" y2="5" style="visibility: inherit;" fill="rgb(0, 0, 0)" stroke="rgb(204, 204, 204)" stroke-width="1px"></line><line x1="85.95416666666667" y1="0" x2="85.95416666666667" y2="5" style="visibility: inherit;" fill="rgb(0, 0, 0)" stroke="rgb(204, 204, 204)" stroke-width="1px"></line><line x1="171.90833333333333" y1="0" x2="171.90833333333333" y2="5" style="visibility: inherit;" fill="rgb(0, 0, 0)" stroke="rgb(204, 204, 204)" stroke-width="1px"></line><line x1="257.8625" y1="0" x2="257.8625" y2="5" style="visibility: inherit;" fill="rgb(0, 0, 0)" stroke="rgb(204, 204, 204)" stroke-width="1px"></line><line x1="343.81666666666666" y1="0" x2="343.81666666666666" y2="5" style="visibility: inherit;" fill="rgb(0, 0, 0)" stroke="rgb(204, 204, 204)" stroke-width="1px"></line><line x1="429.77083333333337" y1="0" x2="429.77083333333337" y2="5" style="visibility: inherit;" fill="rgb(0, 0, 0)" stroke="rgb(204, 204, 204)" stroke-width="1px"></line><line x1="515.725" y1="0" x2="515.725" y2="5" style="visibility: inherit;" fill="rgb(0, 0, 0)" stroke="rgb(204, 204, 204)" stroke-width="1px"></line><line x1="601.6791666666668" y1="0" x2="601.6791666666668" y2="5" style="visibility: inherit;" fill="rgb(0, 0, 0)" stroke="rgb(204, 204, 204)" stroke-width="1px"></line><line x1="687.6333333333333" y1="0" x2="687.6333333333333" y2="5" style="visibility: inherit;" fill="rgb(0, 0, 0)" stroke="rgb(204, 204, 204)" stroke-width="1px"></line><line x1="773.5875000000001" y1="0" x2="773.5875000000001" y2="5" style="visibility: inherit;" fill="rgb(0, 0, 0)" stroke="rgb(204, 204, 204)" stroke-width="1px"></line><line x1="859.5416666666667" y1="0" x2="859.5416666666667" y2="5" style="visibility: inherit;" fill="rgb(0, 0, 0)" stroke="rgb(204, 204, 204)" stroke-width="1px"></line><line x1="945.4958333333333" y1="0" x2="945.4958333333333" y2="5" style="visibility: inherit;" fill="rgb(0, 0, 0)" stroke="rgb(204, 204, 204)" stroke-width="1px"></line><line x1="1031.45" y1="0" x2="1031.45" y2="5" style="visibility: inherit;" fill="rgb(0, 0, 0)" stroke="rgb(204, 204, 204)" stroke-width="1px"></line></g><g transform="translate(0, 8)"><text x="0" y="0" dx="0em" dy="0.95em" style="text-anchor: middle; visibility: hidden; font-family: Roboto, sans-serif; font-size: 12px; font-weight: 200;" fill="rgb(33, 33, 33)" stroke="none" stroke-width="1px">-10</text><text x="85.95416666666667" y="0" dx="0em" dy="0.95em" style="text-anchor: middle; visibility: inherit; font-family: Roboto, sans-serif; font-size: 12px; font-weight: 200;" fill="rgb(33, 33, 33)" stroke="none" stroke-width="1px">0</text><text x="171.90833333333333" y="0" dx="0em" dy="0.95em" style="text-anchor: middle; visibility: inherit; font-family: Roboto, sans-serif; font-size: 12px; font-weight: 200;" fill="rgb(33, 33, 33)" stroke="none" stroke-width="1px">10</text><text x="257.8625" y="0" dx="0em" dy="0.95em" style="text-anchor: middle; visibility: inherit; font-family: Roboto, sans-serif; font-size: 12px; font-weight: 200;" fill="rgb(33, 33, 33)" stroke="none" stroke-width="1px">20</text><text x="343.81666666666666" y="0" dx="0em" dy="0.95em" style="text-anchor: middle; visibility: inherit; font-family: Roboto, sans-serif; font-size: 12px; font-weight: 200;" fill="rgb(33, 33, 33)" stroke="none" stroke-width="1px">30</text><text x="429.77083333333337" y="0" dx="0em" dy="0.95em" style="text-anchor: middle; visibility: inherit; font-family: Roboto, sans-serif; font-size: 12px; font-weight: 200;" fill="rgb(33, 33, 33)" stroke="none" stroke-width="1px">40</text><text x="515.725" y="0" dx="0em" dy="0.95em" style="text-anchor: middle; visibility: inherit; font-family: Roboto, sans-serif; font-size: 12px; font-weight: 200;" fill="rgb(33, 33, 33)" stroke="none" stroke-width="1px">50</text><text x="601.6791666666668" y="0" dx="0em" dy="0.95em" style="text-anchor: middle; visibility: inherit; font-family: Roboto, sans-serif; font-size: 12px; font-weight: 200;" fill="rgb(33, 33, 33)" stroke="none" stroke-width="1px">60</text><text x="687.6333333333333" y="0" dx="0em" dy="0.95em" style="text-anchor: middle; visibility: inherit; font-family: Roboto, sans-serif; font-size: 12px; font-weight: 200;" fill="rgb(33, 33, 33)" stroke="none" stroke-width="1px">70</text><text x="773.5875000000001" y="0" dx="0em" dy="0.95em" style="text-anchor: middle; visibility: inherit; font-family: Roboto, sans-serif; font-size: 12px; font-weight: 200;" fill="rgb(33, 33, 33)" stroke="none" stroke-width="1px">80</text><text x="859.5416666666667" y="0" dx="0em" dy="0.95em" style="text-anchor: middle; visibility: inherit; font-family: Roboto, sans-serif; font-size: 12px; font-weight: 200;" fill="rgb(33, 33, 33)" stroke="none" stroke-width="1px">90</text><text x="945.4958333333333" y="0" dx="0em" dy="0.95em" style="text-anchor: middle; visibility: inherit; font-family: Roboto, sans-serif; font-size: 12px; font-weight: 200;" fill="rgb(33, 33, 33)" stroke="none" stroke-width="1px">100</text><text x="1031.45" y="0" dx="0em" dy="0.95em" style="text-anchor: middle; visibility: hidden; font-family: Roboto, sans-serif; font-size: 12px; font-weight: 200;" fill="rgb(33, 33, 33)" stroke="none" stroke-width="1px">110</text></g><line x1="0" y1="0" x2="1031.45" y2="0" fill="rgb(0, 0, 0)" stroke="rgb(204, 204, 204)" stroke-width="1px"></line></g></g></g></g></svg>