<svg viewBox="0 0 1106.2000732421875 400" xmlns="http://www.w3.org/2000/svg"><g><g><g><g><g><line x1="47" y1="374" x2="42" y2="374" style="visibility: inherit;" fill="rgb(0, 0, 0)" stroke="rgb(204, 204, 204)" stroke-width="1px"></line><line x1="47" y1="340" x2="42" y2="340" style="visibility: inherit;" fill="rgb(0, 0, 0)" stroke="rgb(204, 204, 204)" stroke-width="1px"></line><line x1="47" y1="306" x2="42" y2="306" style="visibility: inherit;" fill="rgb(0, 0, 0)" stroke="rgb(204, 204, 204)" stroke-width="1px"></line><line x1="47" y1="271.99999999999994" x2="42" y2="271.99999999999994" style="visibility: inherit;" fill="rgb(0, 0, 0)" stroke="rgb(204, 204, 204)" stroke-width="1px"></line><line x1="47" y1="237.99999999999994" x2="42" y2="237.99999999999994" style="visibility: inherit;" fill="rgb(0, 0, 0)" stroke="rgb(204, 204, 204)" stroke-width="1px"></line><line x1="47" y1="203.99999999999997" x2="42" y2="203.99999999999997" style="visibility: inherit;" fill="rgb(0, 0, 0)" stroke="rgb(204, 204, 204)" stroke-width="1px"></line><line x1="47" y1="169.99999999999997" x2="42" y2="169.99999999999997" style="visibility: inherit;" fill="rgb(0, 0, 0)" stroke="rgb(204, 204, 204)" stroke-width="1px"></line><line x1="47" y1="135.99999999999997" x2="42" y2="135.99999999999997" style="visibility: inherit;" fill="rgb(0, 0, 0)" stroke="rgb(204, 204, 204)" stroke-width="1px"></line><line x1="47" y1="101.99999999999999" x2="42" y2="101.99999999999999" style="visibility: inherit;" fill="rgb(0, 0, 0)" stroke="rgb(204, 204, 204)" stroke-width="1px"></line><line x1="47" y1="67.99999999999999" x2="42" y2="67.99999999999999" style="visibility: inherit;" fill="rgb(0, 0, 0)" stroke="rgb(204, 204, 204)" stroke-width="1px"></line><line x1="47" y1="33.99999999999993" x2="42" y2="33.99999999999993" style="visibility: inherit;" fill="rgb(0, 0, 0)" stroke="rgb(204, 204, 204)" stroke-width="1px"></line><line x1="47" y1="0" x2="42" y2="0" style="visibility: inherit;" fill="rgb(0, 0, 0)" stroke="rgb(204, 204, 204)" stroke-width="1px"></line></g><g transform="translate(37, 0)"><text x="0" y="374" dx="0em" dy="0.3em" style="text-anchor: end; visibility: hidden; font-family: Roboto, sans-serif; font-size: 12px; font-weight: 200;" fill="rgb(33, 33, 33)" stroke="none" stroke-width="1px">0.04</text><text x="0" y="340" dx="0em" dy="0.3em" style="text-anchor: end; visibility: inherit; font-family: Roboto, sans-serif; font-size: 12px; font-weight: 200;" fill="rgb(33, 33, 33)" stroke="none" stroke-width="1px">0.05</text><text x="0" y="306" dx="0em" dy="0.3em" style="text-anchor: end; visibility: inherit; font-family: Roboto, sans-serif; font-size: 12px; font-weight: 200;" fill="rgb(33, 33, 33)" stroke="none" stroke-width="1px">0.06</text><text x="0" y="271.99999999999994" dx="0em" dy="0.3em" style="text-anchor: end; visibility: inherit; font-family: Roboto, sans-serif; font-size: 12px; font-weight: 200;" fill="rgb(33, 33, 33)" stroke="none" stroke-width="1px">0.07</text><text x="0" y="237.99999999999994" dx="0em" dy="0.3em" style="text-anchor: end; visibility: inherit; font-family: Roboto, sans-serif; font-size: 12px; font-weight: 200;" fill="rgb(33, 33, 33)" stroke="none" stroke-width="1px">0.08</text><text x="0" y="203.99999999999997" dx="0em" dy="0.3em" style="text-anchor: end; visibility: inherit; font-family: Roboto, sans-serif; font-size: 12px; font-weight: 200;" fill="rgb(33, 33, 33)" stroke="none" stroke-width="1px">0.09</text><text x="0" y="169.99999999999997" dx="0em" dy="0.3em" style="text-anchor: end; visibility: inherit; font-family: Roboto, sans-serif; font-size: 12px; font-weight: 200;" fill="rgb(33, 33, 33)" stroke="none" stroke-width="1px">0.1</text><text x="0" y="135.99999999999997" dx="0em" dy="0.3em" style="text-anchor: end; visibility: inherit; font-family: Roboto, sans-serif; font-size: 12px; font-weight: 200;" fill="rgb(33, 33, 33)" stroke="none" stroke-width="1px">0.11</text><text x="0" y="101.99999999999999" dx="0em" dy="0.3em" style="text-anchor: end; visibility: inherit; font-family: Roboto, sans-serif; font-size: 12px; font-weight: 200;" fill="rgb(33, 33, 33)" stroke="none" stroke-width="1px">0.12</text><text x="0" y="67.99999999999999" dx="0em" dy="0.3em" style="text-anchor: end; visibility: inherit; font-family: Roboto, sans-serif; font-size: 12px; font-weight: 200;" fill="rgb(33, 33, 33)" stroke="none" stroke-width="1px">0.13</text><text x="0" y="33.99999999999993" dx="0em" dy="0.3em" style="text-anchor: end; visibility: inherit; font-family: Roboto, sans-serif; font-size: 12px; font-weight: 200;" fill="rgb(33, 33, 33)" stroke="none" stroke-width="1px">0.14</text><text x="0" y="0" dx="0em" dy="0.3em" style="text-anchor: end; visibility: hidden; font-family: Roboto, sans-serif; font-size: 12px; font-weight: 200;" fill="rgb(33, 33, 33)" stroke="none" stroke-width="1px">0.15</text></g><line x1="47" y1="0" x2="47" y2="374" fill="rgb(0, 0, 0)" stroke="rgb(204, 204, 204)" stroke-width="1px"></line></g></g><g transform="translate(47, 0)" clip-path="url(#clip_0)"><clipPath id="clip_0"><rect width="1059" height="374"></rect></clipPath><g><g><g><line x1="0" y1="0" x2="0" y2="374" fill="rgb(0, 0, 0)" stroke="rgb(66, 66, 66)" stroke-width="1px" opacity="0.25"></line><line x1="96.2909090909091" y1="0" x2="96.2909090909091" y2="374" fill="rgb(0, 0, 0)" stroke="rgb(66, 66, 66)" stroke-width="1px" opacity="0.25"></line><line x1="192.5818181818182" y1="0" x2="192.5818181818182" y2="374" fill="rgb(0, 0, 0)" stroke="rgb(66, 66, 66)" stroke-width="1px" opacity="0.25"></line><line x1="288.8727272727273" y1="0" x2="288.8727272727273" y2="374" fill="rgb(0, 0, 0)" stroke="rgb(66, 66, 66)" stroke-width="1px" opacity="0.25"></line><line x1="385.1636363636364" y1="0" x2="385.1636363636364" y2="374" fill="rgb(0, 0, 0)" stroke="rgb(66, 66, 66)" stroke-width="1px" opacity="0.25"></line><line x1="481.45454545454544" y1="0" x2="481.45454545454544" y2="374" fill="rgb(0, 0, 0)" stroke="rgb(66, 66, 66)" stroke-width="1px" opacity="0.25"></line><line x1="577.7454545454545" y1="0" x2="577.7454545454545" y2="374" fill="rgb(0, 0, 0)" stroke="rgb(66, 66, 66)" stroke-width="1px" opacity="0.25"></line><line x1="674.0363636363636" y1="0" x2="674.0363636363636" y2="374" fill="rgb(0, 0, 0)" stroke="rgb(66, 66, 66)" stroke-width="1px" opacity="0.25"></line><line x1="770.3272727272728" y1="0" x2="770.3272727272728" y2="374" fill="rgb(0, 0, 0)" stroke="rgb(66, 66, 66)" stroke-width="1px" opacity="0.25"></line><line x1="866.6181818181819" y1="0" x2="866.6181818181819" y2="374" fill="rgb(0, 0, 0)" stroke="rgb(66, 66, 66)" stroke-width="1px" opacity="0.25"></line><line x1="962.9090909090909" y1="0" x2="962.9090909090909" y2="374" fill="rgb(0, 0, 0)" stroke="rgb(66, 66, 66)" stroke-width="1px" opacity="0.25"></line><line x1="1059.2" y1="0" x2="1059.2" y2="374" fill="rgb(0, 0, 0)" stroke="rgb(66, 66, 66)" stroke-width="1px" opacity="0.25"></line></g><g><line x1="0" y1="374" x2="1059.2" y2="374" fill="rgb(0, 0, 0)" stroke="rgb(66, 66, 66)" stroke-width="1px" opacity="0.25"></line><line x1="0" y1="340" x2="1059.2" y2="340" fill="rgb(0, 0, 0)" stroke="rgb(66, 66, 66)" stroke-width="1px" opacity="0.25"></line><line x1="0" y1="306" x2="1059.2" y2="306" fill="rgb(0, 0, 0)" stroke="rgb(66, 66, 66)" stroke-width="1px" opacity="0.25"></line><line x1="0" y1="271.99999999999994" x2="1059.2" y2="271.99999999999994" fill="rgb(0, 0, 0)" stroke="rgb(66, 66, 66)" stroke-width="1px" opacity="0.25"></line><line x1="0" y1="237.99999999999994" x2="1059.2" y2="237.99999999999994" fill="rgb(0, 0, 0)" stroke="rgb(66, 66, 66)" stroke-width="1px" opacity="0.25"></line><line x1="0" y1="203.99999999999997" x2="1059.2" y2="203.99999999999997" fill="rgb(0, 0, 0)" stroke="rgb(66, 66, 66)" stroke-width="1px" opacity="0.25"></line><line x1="0" y1="169.99999999999997" x2="1059.2" y2="169.99999999999997" fill="rgb(0, 0, 0)" stroke="rgb(66, 66, 66)" stroke-width="1px" opacity="0.25"></line><line x1="0" y1="135.99999999999997" x2="1059.2" y2="135.99999999999997" fill="rgb(0, 0, 0)" stroke="rgb(66, 66, 66)" stroke-width="1px" opacity="0.25"></line><line x1="0" y1="101.99999999999999" x2="1059.2" y2="101.99999999999999" fill="rgb(0, 0, 0)" stroke="rgb(66, 66, 66)" stroke-width="1px" opacity="0.25"></line><line x1="0" y1="67.99999999999999" x2="1059.2" y2="67.99999999999999" fill="rgb(0, 0, 0)" stroke="rgb(66, 66, 66)" stroke-width="1px" opacity="0.25"></line><line x1="0" y1="33.99999999999993" x2="1059.2" y2="33.99999999999993" fill="rgb(0, 0, 0)" stroke="rgb(66, 66, 66)" stroke-width="1px" opacity="0.25"></line><line x1="0" y1="0" x2="1059.2" y2="0" fill="rgb(0, 0, 0)" stroke="rgb(66, 66, 66)" stroke-width="1px" opacity="0.25"></line></g></g></g><g><g><line x1="0" y1="510.00000000000006" x2="1059.2" y2="510.00000000000006" fill="rgb(0, 0, 0)" stroke="rgb(153, 153, 153)" stroke-width="1.5px"></line></g></g><g><g><line x1="96.2909090909091" y1="0" x2="96.2909090909091" y2="374" fill="rgb(0, 0, 0)" stroke="rgb(153, 153, 153)" stroke-width="1.5px"></line></g></g><g><g><g><g><g><path stroke="rgb(255, 112, 67)" stroke-width="2px" d="M97.46565818181818,45.35090088844299L98.52967272727273,146.6726666688919L98.96779636363637,94.98386293649672L99.45888000000001,195.33321022987366L100.16180363636364,118.4637150168419L101.23063272727272,247.9912152886391L101.74097454545455,160.51091611385343L103.31051636363638,200.2641043066978L103.48384,191.26547783613205L103.56087272727274,104.12148594856262L103.82567272727273,170.3550478816032L105.63112727272728,170.70176661014554L105.7274181818182,176.7850375175476L108.34171636363637,212.53701508045197L109.25648000000001,199.7379845380783L109.3720290909091,242.98072814941406L111.13415272727273,215.83427548408505L111.89485090909092,192.8745901584625L112.0104,189.10661101341242L113.45957818181819,215.24115264415738L113.88325818181819,259.33692514896387L116.13165090909092,248.46094608306885L116.42052363636364,188.24729979038236L118.26449454545455,239.92569208145142L120.79694545454547,203.35156530141825L121.26395636363637,239.89194989204404L121.62504727272727,230.71724086999893L121.78392727272728,241.99166655540463L122.10650181818183,195.73994040489194L122.54944,256.59195244312286L123.5749381818182,221.31036430597305L124.3693381818182,250.6387358903885L124.53303272727274,238.40633094310758L125.08670545454547,226.91128909587854L125.16373818181819,283.20896685123444L125.43335272727273,207.0284506678581L126.52144000000001,235.25700926780698L126.78624,239.64065670967102L127.91765818181818,249.1885817050934L128.6928,241.54321461915973L129.27054545454544,237.28214859962463L129.94939636363637,263.42986285686493L131.21080727272727,276.3499042391777L132.09186909090909,250.05800038576123L132.22667636363636,254.0844163298607L133.09329454545457,206.9312012195587L133.50734545454546,226.1730393767357L134.7398690909091,278.2726770639419L135.3946472727273,276.5348529815674L136.20830545454547,232.19900935888288L137.44564363636363,215.69292306900024L137.47453090909093,267.27847367525095L137.78266181818182,263.928142786026L137.98005818181818,230.90320289134976L138.14856727272726,278.2678893208504L138.29300363636364,251.62721484899518L138.4278109090909,212.99684107303617L138.54336,247.3826399445534L138.55298909090908,279.0982714295387L140.3536290909091,219.0609610080719L140.83508363636363,231.6113835573196L141.02285090909092,242.88279473781583L141.19617454545454,246.73049360513684L141.35024,246.22043430805206L143.04977454545454,238.46355587244037L143.2471709090909,245.7763901352882L143.65159272727274,272.2793346643448L143.92602181818182,233.28473776578903L144.03675636363636,272.62840926647186L144.19082181818183,249.53076601028445L144.33525818181818,200.26369899511337L144.73968,260.4991561174392L144.86967272727273,264.10870909690857L145.01892363636367,235.38635432720184L145.35594181818183,268.873501420021L146.57883636363638,259.07522052526474L146.9302981818182,227.22044050693512L147.53211636363636,261.5730291604996L147.54174545454546,240.51699101924896L147.84024727272725,246.1734181642532L149.36164363636365,271.52444183826447L149.81902545454545,296.14327013492584L153.19402181818185,271.1867159605026L153.42512000000002,260.60572773218155L154.19544727272728,249.01609629392627L154.43136,240.27448803186417L155.76980363636366,267.69011825323105L155.98164363636366,303.8322462141514L156.3571781818182,269.57871824502945L158.4226181818182,251.68307185173038L160.34362181818182,250.45725762844086L160.74804363636363,269.8120763897896L161.39319272727272,241.18661642074585L161.528,262.6030272245407L161.97093818181818,240.87260127067563L161.99501090909092,256.6194882988929L162.74126545454547,259.8642608523369L162.9675490909091,272.2374355792999L163.55492363636364,269.06559377908707L163.91601454545454,263.0130758881569L164.59968,244.10100936889648L164.9704,232.10145592689508L165.43259636363635,251.06968343257904L166.79992727272727,271.3598346710205L167.2813818181818,228.3978706598282L167.79172363636366,263.4343719482422L167.8543127272727,267.40490555763245L168.82203636363636,277.31135398149485L168.8461090909091,254.46462392807007L169.39978181818182,267.29815661907196L170.2952872727273,245.80549657344815L171.44596363636364,257.54172414541245L174.48394181818182,275.2683302760124L175.2109381818182,253.30421686172485L177.33896727272727,250.80210179090497L177.49303272727272,278.6388254165649L177.57488,260.58645009994507L177.6904290909091,292.1596145629883L177.8830109090909,256.3377207517624L183.5352872727273,261.5183627605438L183.57380363636364,264.0131315588951L183.61232,208.45798462629318L184.90261818181818,264.2359262704849L185.26852363636362,261.0502278804779L186.6069672727273,246.423647403717L186.63585454545455,302.2106072306633L186.78029090909092,235.02190321683884L188.2920581818182,281.5820714831352L188.77351272727276,223.91324996948242L189.30311272727275,238.60288172960284L189.58235636363636,253.87578219175342L190.17936,252.78997778892514L190.39601454545453,247.01003193855286L190.73784727272727,261.6442120075226L191.81630545454544,295.5850547552108L192.57700363636366,240.25158792734146L195.55720727272728,277.10360646247864L195.69201454545455,244.9629044532776L196.6308509090909,249.86826390028L197.24229818181817,232.96079248189926L197.5696872727273,243.30138027667996L197.64672,272.10378408432007L198.01744000000002,276.82219356298447L198.68184727272728,241.94989413022992L198.8936872727273,281.9210892915725L200.65099636363635,282.798690199852L202.51422545454548,270.7511579990387L202.99086545454546,299.95476961135864L205.59072,238.18001508712766L207.36728727272728,255.61834335327146L207.53579636363636,262.99336761236185L208.98016,260.8697122335434L209.43272727272728,242.3567762970924L213.6598981818182,314.3424442410469L214.09802181818185,243.92986655235293L215.29684363636366,236.85611546039578L215.48942545454545,279.2681223154068L215.82644363636365,269.29917991161346L216.35604363636367,282.2775101661682L216.61121454545457,242.6338067650795L217.19377454545457,283.37387800216675L218.79220363636364,248.9249011874199L219.77918545454546,299.47533667087555L220.09694545454545,288.41970324516296L221.1272581818182,277.03500747680664L222.9278981818182,281.04277908802027L223.28417454545456,279.62788701057434L224.5792872727273,269.2848166823387L224.80557090909093,225.18896818161008L225.39776,251.28247201442716L226.35104,265.8190479874611L226.4232581818182,265.8330565690994L226.7843490909091,259.549663066864L227.76651636363638,268.16048234701157L230.0967563636364,274.1925320029259L230.29415272727275,262.2180825471878L230.58784000000003,291.0030832886696L231.1270690909091,247.81525939702985L231.58926545454545,284.06736612319946L234.9209309090909,273.12126815319056L235.77792,233.5437825322151L235.83569454545457,303.10924634337425L237.40523636363636,252.1513587236404L238.27185454545457,264.015588760376L238.63294545454548,263.8368463516235L238.89774545454546,282.57295697927475L238.9747781818182,294.12091732025146L239.17217454545457,269.989957511425L239.91361454545455,261.1750638484955L240.12064000000004,257.06707894802094L240.99207272727273,261.9062712788582L241.11243636363636,244.67498123645785L242.17163636363637,273.93632441759104L244.1118981818182,292.43732899427414L245.15184,257.56986796855927L245.34442181818184,242.7513217926025L245.3829381818182,284.0947753190994L245.57070545454548,271.6700246930122L247.3520872727273,247.50129491090775L247.51578181818184,264.84693348407745L248.71941818181818,262.37640738487244L249.9615709090909,265.40139973163605L250.13008000000002,242.05920159816742L250.24081454545458,217.90673494338986L250.4237672727273,272.1325358748436L254.26096,276.1438539624214L254.3235490909091,283.05335253477097L256.5141672727273,305.6568956375122L257.13524363636367,292.8345596790314L258.54590545454545,300.8634401857853L259.0369890909091,267.66372233629227L259.33067636363637,294.61192697286606L262.21940363636367,270.14344394207L264.5640872727273,267.50078707933426L264.64112,285.94256550073624L265.4740363636364,259.5760083198547L265.84475636363635,207.86835759878159L266.61508363636364,274.7082656621933L267.0965381818182,244.6131458878517L267.4528145454546,274.7172585129738L268.18944,223.715635240078L269.19568,280.32127380371094L269.3641890909091,260.7350221276283L272.0266327272727,296.58574372529984L272.95584,284.25902783870697L273.9043054545455,277.4565061926841L273.96208,276.59458577632904L274.40983272727277,279.578742980957L274.7420363636364,267.0624679327011L274.80944000000005,264.41319942474365L274.98757818181815,267.44118094444275L275.30533818181823,217.38915205001828L277.6740945454546,271.1907690763473L278.03518545454546,284.10911321640015L278.94032,306.1569994688034L281.1020509090909,304.65216621756554L281.10686545454547,281.41376584768295L281.20797090909093,236.43094360828397L281.58832,284.48503971099854L283.11934545454545,296.63050532341003L283.28304,249.76458013057706L283.48043636363633,267.0643424987793L283.56709818181815,295.4983180761337L284.1785454545455,294.10977125167847L286.88913454545457,248.05277198553085L287.4861381818182,267.2928622364998L289.4023272727273,290.29320538043976L290.00896,258.75160455703735L290.07154909090906,232.19665348529816L290.47115636363634,222.68495321273804L290.8755781818182,261.8699198961258L291.4725818181818,266.1869442462921L291.8433018181818,251.15768671035764L293.4080290909091,282.1062406897545L294.03873454545453,174.48084115982053L295.4879127272727,302.5073713064194L295.96455272727275,282.29101210832596L296.2678690909091,202.04704463481903L296.29194181818184,265.3900256752968L296.4123054545455,268.66066217422485L298.3477527272728,248.6231973767281L298.55959272727273,299.96753692626953L299.13252363636366,286.5895947813988L300.72132363636365,300.14608934521675L301.0776,296.2981751561165L302.61825454545453,264.76088076829905L303.0804509090909,279.70119774341583L303.9807709090909,270.3969916701317L304.42852363636365,228.86017918586725L304.7414690909091,264.03116792440414L306.25805090909097,294.1898456215858L307.0572654545455,275.3492406010628L309.3586181818182,276.64585769176483L309.49342545454545,263.3499404788017L309.81118545454547,290.18987625837326L310.3600436363636,281.13417685031885L310.64410181818187,259.20600950717926L311.5540509090909,324.2823435366154L311.61664,272.84697353839874L311.6455272727273,244.3182310461998L311.7947781818182,292.94764161109924L312.82990545454544,272.697160243988L320.1287563636364,226.9534161686897L322.0449454545455,279.4161370396614L322.8778618181818,249.72029983997345L322.89712000000003,233.31336289644238L322.9741527272728,273.21084201335907L323.1137745454546,296.3019749522209L323.3400581818182,263.54383140802383L323.43153454545455,264.76288199424744L324.03816727272726,297.47157752513885L325.58363636363634,287.81373709440226L327.3842763636364,286.65662318468094L328.29904,266.76983296871185L328.57828363636366,283.018242418766L329.2426909090909,233.30581396818158L329.8445090909091,300.1242911815643L330.4463272727273,235.8751094341278L330.84112000000005,274.13908153772354L331.44775272727276,300.85904508829117L332.99803636363634,230.98284661769867L333.71540363636365,268.4855169057846L334.5290618181818,259.4157582521438L335.8241745454546,303.21838915348053L336.36340363636367,266.0301393270492L337.06632727272734,299.4647225737571L338.2747781818182,321.0927440226078L340.0946763636364,260.05870908498764L340.37392000000006,252.81688034534454L345.66992,304.6804493665695L346.31025454545454,297.4657765030861L346.3391418181819,283.04289042949677L346.5076509090909,278.5451477766037L346.7098618181818,282.72079437971115L347.74980363636365,310.36479234695435L347.9134981818182,258.5538125038147L348.3419927272727,279.14194375276566L348.3997672727273,259.79467391967773L348.56827636363636,293.60323309898376L349.85376,275.08837193250656L351.3029381818182,211.47540271282193L351.85661090909093,263.67216318845743L352.6847127272727,267.2598546743393L354.46128000000004,277.49936789274216L356.47376,279.3865239620209L358.4814254545455,272.16855794191355L359.12657454545456,304.01119127869606L359.96430545454547,280.40742784738535L361.4712581818182,320.0332722067833L361.80346181818186,301.42164289951324L362.85784727272727,278.53764951229095L363.49336727272726,262.9698595404625L363.91223272727274,260.81641376018524L364.11925818181817,308.3413122594356L364.5477527272728,280.18063068389887L365.81879272727275,296.02537512779236L367.3064872727273,274.5344629883766L368.22125090909094,261.5556260943413L370.39261090909093,260.748473405838L370.52260363636367,290.8369055390358L371.03776,300.84838032722473L372.70359272727273,263.1607612967491L372.89135999999996,304.3354152143001L374.53312000000005,269.2477053403854L375.0434618181818,257.176893055439L375.26493090909094,267.8312933444977L376.3530181818182,279.56349313259125L377.44592,294.04433876276016L377.48443636363635,271.89580857753754L378.49549090909096,254.9718967080116L378.68807272727275,278.58142316341394L379.22248727272734,285.47240406274796L379.69912727272725,285.2662777900696L380.62352000000004,265.4786622524261L382.68414545454544,220.58850437402722L383.01153454545454,223.8883739709854L385.1684509090909,253.93310844898224L386.5117090909091,243.23197066783902L387.2387054545455,238.97224724292752L389.7759709090909,217.5522139668464L391.8365963636364,301.2035472691059L391.8943709090909,350.0133088231087L393.5505745454546,283.597913980484L394.33053090909095,282.5931718945503L394.7445818181818,254.26201879978177L395.0430836363637,299.9725526571274L396.44893090909096,298.28380927443504L396.6511418181818,255.01361846923825L398.74065454545456,237.54301726818082L399.45320727272724,282.83595353364944L402.34193454545454,270.22242903709406L402.60192,297.03688085079193L402.91486545454546,302.13425666093826L403.96443636363637,251.24741256237027L404.8599418181818,288.5519614815712L406.8242763636364,246.62721514701846L408.72602181818183,297.23259568214417L408.88971636363635,307.0574244856834L410.80109090909093,278.39447319507593L411.24402909090907,273.3260771632194L411.37883636363637,289.5463934540748L411.92288,297.9343546926975L412.52951272727273,277.4276277422905L412.7124654545455,259.4445100426674L413.2853963636364,251.31540358066556L413.36724363636364,286.18902027606964L413.7283345454546,286.2179493904114L413.8390690909091,315.42422086000437L413.98832,271.2786203622818L415.06196363636366,234.21130537986755L415.15825454545455,265.9809446334839L415.2256581818182,311.7148092389106L415.45675636363643,256.55137062072754L416.50151272727277,303.65385845303535L417.18999272727274,302.43796169757843L417.2477672727273,257.87960201501846L417.32480000000004,287.3063123226165L417.62330181818186,265.90563267469406L420.21834181818184,307.7984353899956L421.32568727272724,296.2191900610924L421.38346181818184,233.96201342344284L422.8807854545455,282.0633029937744L423.1889163636364,265.1247239112854L423.65111272727273,281.7335566878318L424.5851345454546,264.2466416954994L425.7887709090909,303.5336709022522L425.8754327272727,263.4785509109497L426.5061381818182,272.3633608222008L426.6602036363637,320.73957830667496L427.6568145454546,266.48788809776306L428.8123054545455,277.9421961307525L429.6211490909091,294.493550658226L430.70923636363636,257.4343419075012L431.04144,316.6391170024872L431.57585454545455,317.018855959177L431.74436363636363,265.812107026577L432.45210181818186,287.44758874177927L434.24792727272734,275.29665142297745L435.0423272727273,290.1165908575058L436.14004363636366,310.1431502401829L436.16411636363637,247.5350371003151L436.3759563636364,268.0224484205246L437.5218181818182,266.579640507698L437.88772363636366,292.11295306682587L437.9214254545455,291.94743394851685L438.5136145454546,305.26366740465164L438.8891490909091,264.7031998634338L439.1154327272727,295.40453910827637L439.35616000000005,260.8204162120819L441.4649309090909,251.39958173036572L442.13415272727275,285.85742473602295L444.3295854545455,316.76798075437546L445.5861818181818,273.78922164440155L445.7546909090909,298.0933254957199L448.34973090909097,302.85566061735153L448.73489454545455,313.70053201913834L448.9178472727273,274.08636569976807L449.9337163636364,306.35908529162407L450.4729454545455,256.3318943977356L451.0555054545455,328.3777257800102L451.7873163636364,282.6337790489197L452.15803636363637,289.4376939535141L452.1917381818182,299.32002633810043L452.29284363636367,333.33111464977264L452.74059636363637,265.704116821289L453.49166545454545,272.61999905109406L456.20706909090916,278.6747714877128L457.40589090909094,278.63016188144684L457.9114181818182,281.7435121536255L458.08474181818184,318.4763817489147L458.26769454545456,267.96730071306223L458.3688,260.0853836536407L459.1583854545455,286.0867044329643L459.5098472727273,274.1170173883438L459.77464727272724,273.5631591081619L460.1020363636364,256.29865884780884L463.2507490909091,300.8899500966072L464.7528872727273,266.1024621129036L466.0142981818182,322.35299706459045L467.0686836363637,257.2761943936348L469.69742545454545,289.4301450252533L469.94296727272734,285.8697360754013L470.8914327272728,274.07777816057205L471.5847272727273,263.1414330005646L472.25394909090915,272.6368448138237L472.5187490909091,252.18375831842422L472.72096,275.43630659580225L472.9279854545455,275.53879976272583L473.5201745454546,244.6663936972618L473.8620072727273,331.80980294942856L473.9197818181819,263.65942120552063L474.66603636363635,290.8913439512253L476.92887272727273,298.08348402380943L477.4969890909091,325.70581048727036L477.74734545454544,284.0572080016136L479.3072581818182,319.2762388288975L480.8045818181818,311.4830470085144L483.7318254545455,253.8495635986328L483.8281163636364,275.66794216632843L489.2300363636364,274.92647528648376L489.74037818181824,248.38122636079785L493.4042472727273,295.4761779308319L493.7653381818182,244.30376648902893L494.6849163636364,312.72798687219614L496.62036363636366,273.2189482450485L496.74554181818183,269.84462797641754L497.45809454545457,302.27125197649L499.72574545454546,283.0607494711876L500.2505309090909,267.87081122398376L500.65976727272727,288.73148918151855L500.9004945454546,277.90462881326675L502.0656145454546,243.99800956249234L504.67028363636365,270.8317643404007L504.8436072727273,291.0516446828842L506.13872000000003,280.68924605846405L507.54938181818187,275.9550294280052L508.44007272727276,237.37083584070203L509.3018763636364,289.50872480869293L511.41064727272726,291.5240353345871L512.2772654545455,307.51803576946253L512.3687418181819,291.10157400369644L513.5097890909091,266.73107504844666L513.7890327272728,309.5196670293808L514.5160290909091,275.6523883342743L514.6460218181819,309.1496555507183L514.8626763636364,287.47188210487366L516.7018327272727,295.01143753528595L517.9247272727273,310.54316744208336L518.468770909091,262.7299404144287L518.9791127272728,268.7530985474586L519.5327854545455,300.2611345052719L520.4379200000001,282.61521071195597L521.0493672727273,298.67542892694473L522.652610909091,247.97363489866257L523.9766109090909,296.6112783551216L526.9327418181819,294.099917113781L528.4108072727273,301.6233107447624L529.81184,317.4790872633457L530.2788509090909,311.6408145427704L530.4281018181819,293.93764048814774L530.5099490909091,282.0422774553299L532.3779927272727,312.11606770753855L532.4116945454546,262.13322043418884L533.4805236363636,288.169322013855L533.5575563636364,259.4438260793686L533.933090909091,259.36233311891556L534.3808436363636,269.4246491789817L536.4366545454546,300.3592072427273L537.9628654545455,313.4015007317066L538.5069090909092,297.8428429365158L539.1953890909092,269.5653176307678L540.1294109090909,294.3490317463875L540.447170909091,275.7466232776642L540.4519854545455,269.8854124546051L540.4760581818182,283.0709582567215L540.50976,301.7422190308571L542.8448145454546,282.0053181052208L543.1914618181819,273.0361273884773L545.7528,289.3133646249771L547.4860363636363,313.17618548870087L547.6978763636364,232.72072136402127L547.7363927272727,293.10355991125107L548.8822545454545,305.3696437180042L548.920770909091,269.1927856206894L549.6525818181818,283.03265631198883L551.1258327272728,282.43651896715164L553.06128,295.8644410967827L554.0771490909091,270.7844188809395L554.8137745454546,282.6611882448196L556.9851345454546,296.31314635276794L557.4184436363637,274.09115344285965L559.1998254545455,266.22742474079126L562.7385163636363,315.12160509824747L563.3692218181819,282.8294685482979L567.6397236363636,306.1286023259163L570.7114036363636,292.68672227859497L571.2217454545455,267.3836013674736L573.1764509090909,320.5875611305237L573.2582981818182,308.3094573020935L573.4219927272727,315.7079389691353L573.5279127272728,302.1569034457207L574.5726690909091,297.19140589237213L574.9530181818183,271.0407277941704L578.9009454545455,277.55451560020447L579.4738763636364,308.4379917383194L579.8205236363636,272.5105142593384L580.9134254545455,282.6313978433609L581.5778327272727,293.6479187011719L582.24224,296.75468266010284L583.0414545454545,273.013531267643L583.4025454545455,269.6170961856842L584.0765818181818,255.19864320755002L584.9720872727272,287.60581225156784L585.6509381818182,271.3596320152282L587.6249018181818,279.51784491539L588.1496872727272,296.85038685798645L588.17376,303.9181722700596L588.5637381818182,304.7251729667187L589.8251490909091,262.9924809932709L591.255069090909,290.1593005657196L591.9435490909091,290.5949091911316L591.9628072727273,284.6501535177231L593.3253236363637,296.9931071996689L594.1389818181818,289.7981172800064L594.6348800000001,276.4192125201225L595.6555636363637,274.0071779489517L596.6040290909091,305.68300023674965L598.6405818181819,267.0929929614067L598.6742836363637,291.8360745906829L598.9920436363636,286.64600908756256L599.2279563636364,301.81457981467247L601.2211781818182,286.0401949286461L601.6593018181818,296.69198602437973L602.1889018181819,293.1538185477256L602.5114763636363,280.0798600912094L603.2529163636364,269.19010043144226L604.3410036363637,270.2091297507286L604.687650909091,314.0991559624672L604.7694981818181,312.5806434452534L605.2942836363637,304.5609584450722L605.4627927272727,289.74593341350555L605.6601890909092,281.17640525102615L607.6437818181819,291.6150277853012L608.1348654545454,288.85358929634094L608.2744872727272,313.49012464284897L608.3804072727272,241.58420175313947L608.9485236363637,243.7573304772377L610.9706327272728,288.8182765245437L611.2883927272728,258.0651587247848L611.7650327272727,289.6436935663223L611.8179927272727,273.7231305241584L612.00576,305.14429047703743L612.85312,307.3672345280647L614.4563636363637,292.1583479642868L615.2122472727273,295.5056390166282L615.491490909091,272.5743508338928L615.6262981818182,308.9996016025543L616.0307200000001,320.31826958060265L616.5892072727273,284.3584305047989L621.7504,299.95029851794243L622.0585309090909,251.88415706157681L623.4788218181818,304.70621198415756L623.6906618181819,257.5196346640587L625.4768581818182,279.3849787116051L626.0160872727273,281.9230145215988L626.1220072727273,284.18176531791687L627.8359854545455,293.83269011974335L628.2981818181818,311.29366517066956L630.5658327272728,289.21555787324905L630.7680436363637,275.59002101421356L631.7453963636364,271.4040896296501L631.9813090909091,282.13674038648605L632.2124072727273,292.364296913147L632.3568436363637,315.59161454439163L633.6326981818182,276.824372112751L635.3418618181819,326.5961280465126L636.8680727272728,288.59667241573334L636.9788072727273,307.1572957932949L637.099170909091,316.02957904338837L637.5565527272727,247.22563236951825L637.6769163636363,306.0475653409958L638.0813381818183,300.9518361091614L638.1535563636364,313.52456346154213L638.6638981818181,295.6668770313263L638.6687127272728,300.3601571917534L640.0890036363636,308.99166002869606L642.5251636363637,278.19901168346405L645.8857163636363,265.39747327566147L646.1312581818182,284.7614875435829L646.896770909091,293.95392894744873L646.9449163636364,304.00390833616257L647.9318981818183,302.1777009963989L648.8514763636364,286.1468932032585L649.1114618181819,279.56057995557785L649.1884945454545,290.10701537132263L651.3502254545455,295.47156751155853L651.6872436363636,305.34144923090935L651.7065018181818,277.92839020490646L652.0194472727272,299.240749925375L653.0160581818183,301.9476233422756L653.1508654545454,321.1728310585022L653.8200872727273,325.94899743795395L655.5388800000001,325.504839271307L655.5436945454545,321.306457221508L656.0010763636365,309.5217949151993L656.7328872727273,308.3319394290447L657.6380218181819,294.86575335264206L657.65728,279.46849822998047L660.3486109090909,280.3912660479545L660.8204363636364,277.74488538503647L663.27104,322.93226331472397L666.3282763636364,292.8736215829849L667.1756363636364,298.47291246056557L667.5463563636364,307.71447256207466L669.3421818181819,298.40850591659546L669.6358690909092,272.69771754741663L670.1991709090909,278.16549748182297L670.4687854545455,259.4369357824325L671.6676072727273,299.9994298815727L673.429730909091,304.7547733783722L675.3748072727273,262.8919890522957L675.6973818181818,321.22080981731415L676.501410909091,245.7682079076767L678.5042618181818,301.0386994481087L678.7016581818183,299.5291544497013L678.8220218181818,303.8824668526649L679.4719854545455,320.5651296675205L681.6000145454547,270.34260392189026L682.0429527272728,291.115785241127L683.5643490909091,267.2368025779724L685.8945890909091,308.1213927268982L686.5108509090909,310.2578407526016L686.7756509090909,306.1809888482094L688.0226181818182,292.8364342451095L689.8377018181818,292.1848452091217L690.6658036363638,294.6490889787674L693.1693672727273,287.09362506866455L694.0022836363637,301.27337485551834L694.1611636363637,281.94143086671824L696.1832727272728,313.64524498581886L697.5169018181819,287.2438183426857L698.5135127272728,294.4862550497055L698.638690909091,281.56666964292526L700.3430400000001,315.49973547458643L701.2770618181819,323.8522192835808L701.9270254545455,320.89899241924286L703.0536290909091,279.9183687567711L703.5928581818182,302.52954944968224L706.3708509090909,287.92965620756144L707.0593309090909,284.7552558779716L707.7189236363637,250.01301079988477L709.8421381818182,287.7429848909378L710.679869090909,267.96030908823013L714.7192727272728,311.4468856155872L714.8588945454546,287.7811601758003L715.7495854545455,288.06690484285355L715.9806836363637,257.7693572640419L716.3706618181818,316.15406036376953L716.9917381818183,282.26732671260834L718.7394181818182,299.4267752766609L718.8357090909092,274.4669532775879L718.8549672727273,249.5460158586502L718.9560727272728,264.8117473721504L719.875650909091,283.8670155405998L720.5159854545456,276.4760574698448L721.642589090909,313.72619330883026L723.6358109090909,283.7546175718307L725.1138763636363,275.1151478290558L725.2872,300.1972219347954L725.4075636363636,269.1514438390732L727.0059927272728,279.80376690626144L727.8533527272727,288.88454496860504L728.0026036363637,258.55454713106155L729.6732509090909,265.6984931230545L730.4291345454545,291.92992955446243L731.4450036363637,262.38018184900284L731.8301672727273,272.0775908231735L732.3260654545455,278.4907093644142L732.586050909091,270.8455955982208L734.9548072727273,268.63211303949356L736.4858327272727,293.51490050554276L736.663970909091,298.38748037815094L737.4872581818182,287.02796459198L739.6441745454546,293.1668645143509L740.7852218181819,294.74190533161163L745.2723781818182,286.9561231136322L746.0138181818182,291.29802346229553L746.2786181818182,317.3658153414726L746.4374981818182,250.59481024742124L746.7456290909091,273.27212005853653L747.0056145454546,281.3178336620331L747.0682036363636,278.684346973896L748.0985163636365,287.8686821460724L749.0614254545454,322.790784239769L753.6785745454546,308.62463772296906L754.7474036363637,307.2104802727699L755.7873454545455,307.0243662595749L756.1965818181818,306.8518301844597L758.0357381818183,270.9645798802376L758.536450909091,279.10822689533234L760.2600581818182,301.7093001306057L760.5681890909092,287.19659954309464L761.0592727272727,274.13442045450205L761.3192581818182,257.65260219573975L761.4155490909092,295.70895344018936L761.7044218181818,265.1875978708267L762.78288,306.9316005706787L764.8579490909092,294.3113124370575L765.8690036363637,314.8084765672684L765.9123345454547,265.2169069647789L769.5088000000001,266.4786672592163L770.9002036363637,281.8714639544487L771.0638981818182,278.7830910086632L771.4731345454546,276.2777841091156L771.9738472727273,306.19675800204277L772.0219927272727,279.7257190942764L772.1664290909091,288.0769869685173L772.6141818181819,297.9147984087467L773.42784,280.96673250198364L774.4629672727273,259.4456246495247L776.6102545454546,273.6635243892669L776.6535854545455,300.59189409017563L776.6632145454546,282.320194542408L777.1928145454546,300.9251362085342L777.4528,299.8422449827194L777.6164945454547,293.5752159357071L778.2423854545456,309.7329242527485L778.35312,248.93728852272034L778.6949527272728,299.6052896976471L782.156610909091,285.9211093187332L782.3780800000001,268.7244987487793L782.9702690909091,286.9006207585335L785.2138472727273,307.90257513523096L785.2764363636364,290.1619604229927L786.3597090909092,291.0237795114517L787.0385600000001,295.3719621896744L789.0510400000001,267.76748210191727L790.7361309090909,269.6883550286293L792.2912290909092,281.1566463112831L793.2252509090908,302.97921732068056L793.2300654545455,270.81190407276154L793.384130909091,305.4783052206039L798.1264581818183,311.6975708305836L798.6368,304.92734745144844L799.2145454545455,292.56330490112305L800.0522763636363,274.4254341721535L800.5241018181819,282.4864989519119L801.5351563636364,266.4033806324005L802.6136145454545,252.32174158096316L803.2298763636363,305.6664204597473L803.4369018181818,296.5359157323837L805.2423563636363,275.5213713645935L812.5315781818182,314.4676601886749L812.7049018181818,296.74898296594614L814.2022254545454,293.03546756505966L814.3755490909091,306.6289974749088L818.1068218181819,290.86874783039093L818.1116363636363,280.87936252355576L819.0119563636364,253.61438155174255L822.8684072727273,306.3545002043247L823.0658036363637,281.0902005434036L823.2198690909091,286.39846503734583L823.6435490909091,305.8151191473007L823.6579927272728,294.51612144708633L824.5968290909092,296.1901596188545L825.6464,287.9991164803505L825.6608436363637,313.300628811121L825.9882327272728,287.85963863134384L827.2352000000001,297.3057290911674L827.6396218181818,293.78048092126846L828.2751418181819,282.69850224256516L828.6217890909091,317.74407237768173L828.9491781818182,285.1429110765457L829.026210909091,285.6470173597336L829.4498909090909,326.4355866611004L829.5943272727274,318.8270269334316L831.7560581818182,310.90204551815987L831.7801309090909,279.3471074104309L832.0738181818182,279.12101954221725L832.6178618181818,311.24091133475304L833.2341236363636,287.8338760137558L833.7444654545455,296.5712031722068L834.17296,300.7472424209118L834.6977454545454,252.9643124341965L835.7569454545454,294.71938520669937L837.24464,279.58021223545074L838.7371490909092,329.294223934412L840.2585454545456,288.96910309791565L841.1684945454546,290.5880695581436L841.6210618181818,297.56512850522995L841.842530909091,308.8585405051708L842.0495563636364,305.5641806125641L842.3095418181819,262.47887521982193L846.926690909091,272.6890033483505L847.2925963636364,269.59482938051224L848.9825018181818,304.26689222455025L848.992130909091,289.0015786886215L849.8106036363637,300.0923728942871L850.4027927272728,283.70899468660355L850.96128,335.85778906941414L852.2949090909092,281.9972625374794L853.5129890909092,253.01208853721616L854.7695854545454,273.6743918061256L855.8191563636365,254.7069749236107L859.2904436363638,308.2025817036629L860.007810909091,321.2332098186016L861.1103418181818,288.1315013766289L862.9591272727273,305.0956277549267L863.2865163636365,330.5215074121952L864.7068072727272,302.99160465598106L865.7948945454546,307.42402881383896L866.00192,263.51001322269434L866.4593018181818,319.35003086924553L866.9792727272727,295.69702208042145L867.4799854545455,288.0967712402344L868.6402909090909,288.2850384712219L869.0110109090909,264.4913485646248L870.0942836363637,262.9095947742462L871.8997381818183,311.02927535772324L873.52224,298.5034628212452L873.6089018181818,300.52347242832184L874.8510545454546,274.53714817762375L875.7321163636364,296.9135648012161L875.8621090909091,282.00526744127274L880.30112,311.4174371957779L880.652581818182,300.63597172498703L880.8692363636363,316.916780769825L880.93664,299.96257185935974L881.0377454545455,282.6034313440323L881.4277236363637,333.2822872698307L882.0776872727273,319.2427119612694L883.7627781818182,261.4654189348221L884.7979054545455,307.4889546632767L885.7319272727273,246.38291358947754L887.18592,282.8973835706711L887.7781090909091,262.77323275804514L888.1006836363637,285.07089227437973L888.3269672727273,298.2836572825908L889.51616,295.55252850055695L890.6331345454545,298.0782276391983L891.5430836363637,308.0125159025192L891.9138036363637,302.10079312324524L893.4303854545454,295.4351907968521L893.6951854545455,295.2526992559433L894.7592000000001,288.98460626602173L896.7813090909091,305.96402049064636L899.3426472727273,267.09848999977106L900.0744581818182,272.52155900001526L900.1418618181818,301.35776832699776L901.0469963636364,309.31956976652145L901.2347636363637,310.13069957494736L901.2877236363637,310.0356286764145L901.5525236363636,328.792562186718L901.581410909091,306.77872210741043L902.1591563636364,312.7341552078724L904.1571927272728,327.8058058023453L904.9371490909091,314.43807244300837L906.8292654545455,287.1505460143089L907.7969890909092,304.4006323814392L907.94624,291.0328483581543L908.1484509090909,289.4876232743263L908.7502690909092,305.1800338923931L909.8239127272727,314.5994371175766L910.0598254545455,328.9699999988079L910.9071854545455,310.93207657337183L910.9505163636363,252.4289971590042L913.2518690909092,302.2663502395153L914.2051490909091,317.64005929231644L914.3881018181818,282.2454905509949L914.5999418181818,310.9609043598175L914.8647418181819,283.20384979248047L915.1439854545455,318.4250211715698L915.9432,285.8584886789322L916.0539345454546,286.9026979804039L916.569090909091,322.6328647136688L917.1516509090909,279.511005282402L918.104930909091,294.37362909317017L918.1338181818182,298.3385516703128L918.3601018181819,297.295925617218L919.4626327272728,288.9984881877899L919.7900218181818,288.4492403268814L919.9874181818183,310.5865231156349L920.0692654545454,281.3802263140678L920.2281454545456,270.9621733427048L920.7818181818182,331.1852937936783L921.2247563636364,308.7907141447067L922.7702254545455,308.2221886515617L923.6561018181818,301.78119227290154L924.89344,284.39655512571335L926.4581672727272,285.5780890583992L926.7518545454545,305.8251252770424L927.0696145454547,282.8265047073364L929.8716800000001,317.13131725788116L930.3290618181818,268.22135508060455L930.5312727272728,285.8910149335861L932.5485672727273,284.1918981075287L933.0300218181819,306.47724628448486L933.0444654545455,292.8324571251869L933.4248145454545,307.9535177350044L934.0170036363637,276.9973134994506L935.2350836363637,293.0432191491127L935.5239563636363,294.88685488700867L936.0631854545454,303.7563642859459L937.4690327272727,313.730259090662L937.9167854545454,284.08380657434464L938.5089745454545,309.67287480831146L938.9615418181818,323.99324238300323L942.5002327272728,272.07262575626373L943.3090763636364,324.90255892276764L943.4246254545454,313.0266508460045L944.2093963636363,288.7948951125145L945.5478400000001,276.8815463781357L946.5492654545454,286.6383334994316L948.8795054545454,324.2286017537117L952.2111709090909,305.60514241456985L952.846690909091,301.0821817815304L953.1114909090909,324.49266225099564L953.1500072727273,311.5129640698433L953.4533236363637,332.7187901735306L954.0455127272728,281.1789131164551L954.4788218181819,274.43460434675217L955.3791418181819,280.21538615226746L955.5861672727274,308.92294704914093L956.0724363636365,229.2796006798744L956.1205818181818,302.5650142133236L956.6598109090909,295.2260500192642L958.195650909091,288.88705283403397L958.5808145454546,285.1098021864891L959.31744,318.7873190641403L960.5258909090909,293.6533650755882L961.3106618181819,304.67386305332184L962.0280290909092,299.3281832337379L962.75984,275.288595855236L963.067970909091,325.6655579805374L965.2345163636364,256.10922634601593L965.5282036363636,276.2758842110633L966.7992436363636,308.80455806851387L966.9196072727273,312.0794630050659L967.5310545454545,283.99172484874725L968.2002763636364,288.06741148233414" style="fill: none;" fill="none"></path></g></g></g></g></g></g><g transform="translate(47, 374)" clip-path="url(#clip_1)"><clipPath id="clip_1"><rect width="1059" height="26"></rect></clipPath><g><g><line x1="0" y1="0" x2="0" y2="5" style="visibility: inherit;" fill="rgb(0, 0, 0)" stroke="rgb(204, 204, 204)" stroke-width="1px"></line><line x1="96.2909090909091" y1="0" x2="96.2909090909091" y2="5" style="visibility: inherit;" fill="rgb(0, 0, 0)" stroke="rgb(204, 204, 204)" stroke-width="1px"></line><line x1="192.5818181818182" y1="0" x2="192.5818181818182" y2="5" style="visibility: inherit;" fill="rgb(0, 0, 0)" stroke="rgb(204, 204, 204)" stroke-width="1px"></line><line x1="288.8727272727273" y1="0" x2="288.8727272727273" y2="5" style="visibility: inherit;" fill="rgb(0, 0, 0)" stroke="rgb(204, 204, 204)" stroke-width="1px"></line><line x1="385.1636363636364" y1="0" x2="385.1636363636364" y2="5" style="visibility: inherit;" fill="rgb(0, 0, 0)" stroke="rgb(204, 204, 204)" stroke-width="1px"></line><line x1="481.45454545454544" y1="0" x2="481.45454545454544" y2="5" style="visibility: inherit;" fill="rgb(0, 0, 0)" stroke="rgb(204, 204, 204)" stroke-width="1px"></line><line x1="577.7454545454545" y1="0" x2="577.7454545454545" y2="5" style="visibility: inherit;" fill="rgb(0, 0, 0)" stroke="rgb(204, 204, 204)" stroke-width="1px"></line><line x1="674.0363636363636" y1="0" x2="674.0363636363636" y2="5" style="visibility: inherit;" fill="rgb(0, 0, 0)" stroke="rgb(204, 204, 204)" stroke-width="1px"></line><line x1="770.3272727272728" y1="0" x2="770.3272727272728" y2="5" style="visibility: inherit;" fill="rgb(0, 0, 0)" stroke="rgb(204, 204, 204)" stroke-width="1px"></line><line x1="866.6181818181819" y1="0" x2="866.6181818181819" y2="5" style="visibility: inherit;" fill="rgb(0, 0, 0)" stroke="rgb(204, 204, 204)" stroke-width="1px"></line><line x1="962.9090909090909" y1="0" x2="962.9090909090909" y2="5" style="visibility: inherit;" fill="rgb(0, 0, 0)" stroke="rgb(204, 204, 204)" stroke-width="1px"></line><line x1="1059.2" y1="0" x2="1059.2" y2="5" style="visibility: inherit;" fill="rgb(0, 0, 0)" stroke="rgb(204, 204, 204)" stroke-width="1px"></line></g><g transform="translate(0, 8)"><text x="0" y="0" dx="0em" dy="0.95em" style="text-anchor: middle; visibility: hidden; font-family: Roboto, sans-serif; font-size: 12px; font-weight: 200;" fill="rgb(33, 33, 33)" stroke="none" stroke-width="1px">-20k</text><text x="96.2909090909091" y="0" dx="0em" dy="0.95em" style="text-anchor: middle; visibility: inherit; font-family: Roboto, sans-serif; font-size: 12px; font-weight: 200;" fill="rgb(33, 33, 33)" stroke="none" stroke-width="1px">0</text><text x="192.5818181818182" y="0" dx="0em" dy="0.95em" style="text-anchor: middle; visibility: inherit; font-family: Roboto, sans-serif; font-size: 12px; font-weight: 200;" fill="rgb(33, 33, 33)" stroke="none" stroke-width="1px">20k</text><text x="288.8727272727273" y="0" dx="0em" dy="0.95em" style="text-anchor: middle; visibility: inherit; font-family: Roboto, sans-serif; font-size: 12px; font-weight: 200;" fill="rgb(33, 33, 33)" stroke="none" stroke-width="1px">40k</text><text x="385.1636363636364" y="0" dx="0em" dy="0.95em" style="text-anchor: middle; visibility: inherit; font-family: Roboto, sans-serif; font-size: 12px; font-weight: 200;" fill="rgb(33, 33, 33)" stroke="none" stroke-width="1px">60k</text><text x="481.45454545454544" y="0" dx="0em" dy="0.95em" style="text-anchor: middle; visibility: inherit; font-family: Roboto, sans-serif; font-size: 12px; font-weight: 200;" fill="rgb(33, 33, 33)" stroke="none" stroke-width="1px">80k</text><text x="577.7454545454545" y="0" dx="0em" dy="0.95em" style="text-anchor: middle; visibility: inherit; font-family: Roboto, sans-serif; font-size: 12px; font-weight: 200;" fill="rgb(33, 33, 33)" stroke="none" stroke-width="1px">100k</text><text x="674.0363636363636" y="0" dx="0em" dy="0.95em" style="text-anchor: middle; visibility: inherit; font-family: Roboto, sans-serif; font-size: 12px; font-weight: 200;" fill="rgb(33, 33, 33)" stroke="none" stroke-width="1px">120k</text><text x="770.3272727272728" y="0" dx="0em" dy="0.95em" style="text-anchor: middle; visibility: inherit; font-family: Roboto, sans-serif; font-size: 12px; font-weight: 200;" fill="rgb(33, 33, 33)" stroke="none" stroke-width="1px">140k</text><text x="866.6181818181819" y="0" dx="0em" dy="0.95em" style="text-anchor: middle; visibility: inherit; font-family: Roboto, sans-serif; font-size: 12px; font-weight: 200;" fill="rgb(33, 33, 33)" stroke="none" stroke-width="1px">160k</text><text x="962.9090909090909" y="0" dx="0em" dy="0.95em" style="text-anchor: middle; visibility: inherit; font-family: Roboto, sans-serif; font-size: 12px; font-weight: 200;" fill="rgb(33, 33, 33)" stroke="none" stroke-width="1px">180k</text><text x="1059.2" y="0" dx="0em" dy="0.95em" style="text-anchor: middle; visibility: hidden; font-family: Roboto, sans-serif; font-size: 12px; font-weight: 200;" fill="rgb(33, 33, 33)" stroke="none" stroke-width="1px">200k</text></g><line x1="0" y1="0" x2="1059.2" y2="0" fill="rgb(0, 0, 0)" stroke="rgb(204, 204, 204)" stroke-width="1px"></line></g></g></g></g></svg>