<svg viewBox="0 0 1106.2000732421875 400" xmlns="http://www.w3.org/2000/svg"><g><g><g><g><g><line x1="56.25" y1="374" x2="51.25" y2="374" style="visibility: inherit;" fill="rgb(0, 0, 0)" stroke="rgb(204, 204, 204)" stroke-width="1px"></line><line x1="56.25" y1="342.83333333333337" x2="51.25" y2="342.83333333333337" style="visibility: inherit;" fill="rgb(0, 0, 0)" stroke="rgb(204, 204, 204)" stroke-width="1px"></line><line x1="56.25" y1="311.6666666666667" x2="51.25" y2="311.6666666666667" style="visibility: inherit;" fill="rgb(0, 0, 0)" stroke="rgb(204, 204, 204)" stroke-width="1px"></line><line x1="56.25" y1="280.50000000000006" x2="51.25" y2="280.50000000000006" style="visibility: inherit;" fill="rgb(0, 0, 0)" stroke="rgb(204, 204, 204)" stroke-width="1px"></line><line x1="56.25" y1="249.33333333333337" x2="51.25" y2="249.33333333333337" style="visibility: inherit;" fill="rgb(0, 0, 0)" stroke="rgb(204, 204, 204)" stroke-width="1px"></line><line x1="56.25" y1="218.1666666666667" x2="51.25" y2="218.1666666666667" style="visibility: inherit;" fill="rgb(0, 0, 0)" stroke="rgb(204, 204, 204)" stroke-width="1px"></line><line x1="56.25" y1="187" x2="51.25" y2="187" style="visibility: inherit;" fill="rgb(0, 0, 0)" stroke="rgb(204, 204, 204)" stroke-width="1px"></line><line x1="56.25" y1="155.83333333333337" x2="51.25" y2="155.83333333333337" style="visibility: inherit;" fill="rgb(0, 0, 0)" stroke="rgb(204, 204, 204)" stroke-width="1px"></line><line x1="56.25" y1="124.66666666666669" x2="51.25" y2="124.66666666666669" style="visibility: inherit;" fill="rgb(0, 0, 0)" stroke="rgb(204, 204, 204)" stroke-width="1px"></line><line x1="56.25" y1="93.49999999999996" x2="51.25" y2="93.49999999999996" style="visibility: inherit;" fill="rgb(0, 0, 0)" stroke="rgb(204, 204, 204)" stroke-width="1px"></line><line x1="56.25" y1="62.3333333333334" x2="51.25" y2="62.3333333333334" style="visibility: inherit;" fill="rgb(0, 0, 0)" stroke="rgb(204, 204, 204)" stroke-width="1px"></line><line x1="56.25" y1="31.166666666666682" x2="51.25" y2="31.166666666666682" style="visibility: inherit;" fill="rgb(0, 0, 0)" stroke="rgb(204, 204, 204)" stroke-width="1px"></line><line x1="56.25" y1="0" x2="51.25" y2="0" style="visibility: inherit;" fill="rgb(0, 0, 0)" stroke="rgb(204, 204, 204)" stroke-width="1px"></line></g><g transform="translate(46.25, 0)"><text x="0" y="374" dx="0em" dy="0.3em" style="text-anchor: end; visibility: hidden; font-family: Roboto, sans-serif; font-size: 12px; font-weight: 200;" fill="rgb(33, 33, 33)" stroke="none" stroke-width="1px">0.016</text><text x="0" y="342.83333333333337" dx="0em" dy="0.3em" style="text-anchor: end; visibility: inherit; font-family: Roboto, sans-serif; font-size: 12px; font-weight: 200;" fill="rgb(33, 33, 33)" stroke="none" stroke-width="1px">0.018</text><text x="0" y="311.6666666666667" dx="0em" dy="0.3em" style="text-anchor: end; visibility: inherit; font-family: Roboto, sans-serif; font-size: 12px; font-weight: 200;" fill="rgb(33, 33, 33)" stroke="none" stroke-width="1px">0.02</text><text x="0" y="280.50000000000006" dx="0em" dy="0.3em" style="text-anchor: end; visibility: inherit; font-family: Roboto, sans-serif; font-size: 12px; font-weight: 200;" fill="rgb(33, 33, 33)" stroke="none" stroke-width="1px">0.022</text><text x="0" y="249.33333333333337" dx="0em" dy="0.3em" style="text-anchor: end; visibility: inherit; font-family: Roboto, sans-serif; font-size: 12px; font-weight: 200;" fill="rgb(33, 33, 33)" stroke="none" stroke-width="1px">0.024</text><text x="0" y="218.1666666666667" dx="0em" dy="0.3em" style="text-anchor: end; visibility: inherit; font-family: Roboto, sans-serif; font-size: 12px; font-weight: 200;" fill="rgb(33, 33, 33)" stroke="none" stroke-width="1px">0.026</text><text x="0" y="187" dx="0em" dy="0.3em" style="text-anchor: end; visibility: inherit; font-family: Roboto, sans-serif; font-size: 12px; font-weight: 200;" fill="rgb(33, 33, 33)" stroke="none" stroke-width="1px">0.028</text><text x="0" y="155.83333333333337" dx="0em" dy="0.3em" style="text-anchor: end; visibility: inherit; font-family: Roboto, sans-serif; font-size: 12px; font-weight: 200;" fill="rgb(33, 33, 33)" stroke="none" stroke-width="1px">0.03</text><text x="0" y="124.66666666666669" dx="0em" dy="0.3em" style="text-anchor: end; visibility: inherit; font-family: Roboto, sans-serif; font-size: 12px; font-weight: 200;" fill="rgb(33, 33, 33)" stroke="none" stroke-width="1px">0.032</text><text x="0" y="93.49999999999996" dx="0em" dy="0.3em" style="text-anchor: end; visibility: inherit; font-family: Roboto, sans-serif; font-size: 12px; font-weight: 200;" fill="rgb(33, 33, 33)" stroke="none" stroke-width="1px">0.034</text><text x="0" y="62.3333333333334" dx="0em" dy="0.3em" style="text-anchor: end; visibility: inherit; font-family: Roboto, sans-serif; font-size: 12px; font-weight: 200;" fill="rgb(33, 33, 33)" stroke="none" stroke-width="1px">0.036</text><text x="0" y="31.166666666666682" dx="0em" dy="0.3em" style="text-anchor: end; visibility: inherit; font-family: Roboto, sans-serif; font-size: 12px; font-weight: 200;" fill="rgb(33, 33, 33)" stroke="none" stroke-width="1px">0.038</text><text x="0" y="0" dx="0em" dy="0.3em" style="text-anchor: end; visibility: hidden; font-family: Roboto, sans-serif; font-size: 12px; font-weight: 200;" fill="rgb(33, 33, 33)" stroke="none" stroke-width="1px">0.04</text></g><line x1="56.25" y1="0" x2="56.25" y2="374" fill="rgb(0, 0, 0)" stroke="rgb(204, 204, 204)" stroke-width="1px"></line></g></g><g transform="translate(56, 0)" clip-path="url(#clip_0)"><clipPath id="clip_0"><rect width="1049" height="374"></rect></clipPath><g><g><g><line x1="0" y1="0" x2="0" y2="374" fill="rgb(0, 0, 0)" stroke="rgb(66, 66, 66)" stroke-width="1px" opacity="0.25"></line><line x1="95.45" y1="0" x2="95.45" y2="374" fill="rgb(0, 0, 0)" stroke="rgb(66, 66, 66)" stroke-width="1px" opacity="0.25"></line><line x1="190.9" y1="0" x2="190.9" y2="374" fill="rgb(0, 0, 0)" stroke="rgb(66, 66, 66)" stroke-width="1px" opacity="0.25"></line><line x1="286.34999999999997" y1="0" x2="286.34999999999997" y2="374" fill="rgb(0, 0, 0)" stroke="rgb(66, 66, 66)" stroke-width="1px" opacity="0.25"></line><line x1="381.8" y1="0" x2="381.8" y2="374" fill="rgb(0, 0, 0)" stroke="rgb(66, 66, 66)" stroke-width="1px" opacity="0.25"></line><line x1="477.25" y1="0" x2="477.25" y2="374" fill="rgb(0, 0, 0)" stroke="rgb(66, 66, 66)" stroke-width="1px" opacity="0.25"></line><line x1="572.6999999999999" y1="0" x2="572.6999999999999" y2="374" fill="rgb(0, 0, 0)" stroke="rgb(66, 66, 66)" stroke-width="1px" opacity="0.25"></line><line x1="668.15" y1="0" x2="668.15" y2="374" fill="rgb(0, 0, 0)" stroke="rgb(66, 66, 66)" stroke-width="1px" opacity="0.25"></line><line x1="763.6" y1="0" x2="763.6" y2="374" fill="rgb(0, 0, 0)" stroke="rgb(66, 66, 66)" stroke-width="1px" opacity="0.25"></line><line x1="859.0500000000001" y1="0" x2="859.0500000000001" y2="374" fill="rgb(0, 0, 0)" stroke="rgb(66, 66, 66)" stroke-width="1px" opacity="0.25"></line><line x1="954.5" y1="0" x2="954.5" y2="374" fill="rgb(0, 0, 0)" stroke="rgb(66, 66, 66)" stroke-width="1px" opacity="0.25"></line><line x1="1049.95" y1="0" x2="1049.95" y2="374" fill="rgb(0, 0, 0)" stroke="rgb(66, 66, 66)" stroke-width="1px" opacity="0.25"></line></g><g><line x1="0" y1="374" x2="1049.95" y2="374" fill="rgb(0, 0, 0)" stroke="rgb(66, 66, 66)" stroke-width="1px" opacity="0.25"></line><line x1="0" y1="342.83333333333337" x2="1049.95" y2="342.83333333333337" fill="rgb(0, 0, 0)" stroke="rgb(66, 66, 66)" stroke-width="1px" opacity="0.25"></line><line x1="0" y1="311.6666666666667" x2="1049.95" y2="311.6666666666667" fill="rgb(0, 0, 0)" stroke="rgb(66, 66, 66)" stroke-width="1px" opacity="0.25"></line><line x1="0" y1="280.50000000000006" x2="1049.95" y2="280.50000000000006" fill="rgb(0, 0, 0)" stroke="rgb(66, 66, 66)" stroke-width="1px" opacity="0.25"></line><line x1="0" y1="249.33333333333337" x2="1049.95" y2="249.33333333333337" fill="rgb(0, 0, 0)" stroke="rgb(66, 66, 66)" stroke-width="1px" opacity="0.25"></line><line x1="0" y1="218.1666666666667" x2="1049.95" y2="218.1666666666667" fill="rgb(0, 0, 0)" stroke="rgb(66, 66, 66)" stroke-width="1px" opacity="0.25"></line><line x1="0" y1="187" x2="1049.95" y2="187" fill="rgb(0, 0, 0)" stroke="rgb(66, 66, 66)" stroke-width="1px" opacity="0.25"></line><line x1="0" y1="155.83333333333337" x2="1049.95" y2="155.83333333333337" fill="rgb(0, 0, 0)" stroke="rgb(66, 66, 66)" stroke-width="1px" opacity="0.25"></line><line x1="0" y1="124.66666666666669" x2="1049.95" y2="124.66666666666669" fill="rgb(0, 0, 0)" stroke="rgb(66, 66, 66)" stroke-width="1px" opacity="0.25"></line><line x1="0" y1="93.49999999999996" x2="1049.95" y2="93.49999999999996" fill="rgb(0, 0, 0)" stroke="rgb(66, 66, 66)" stroke-width="1px" opacity="0.25"></line><line x1="0" y1="62.3333333333334" x2="1049.95" y2="62.3333333333334" fill="rgb(0, 0, 0)" stroke="rgb(66, 66, 66)" stroke-width="1px" opacity="0.25"></line><line x1="0" y1="31.166666666666682" x2="1049.95" y2="31.166666666666682" fill="rgb(0, 0, 0)" stroke="rgb(66, 66, 66)" stroke-width="1px" opacity="0.25"></line><line x1="0" y1="0" x2="1049.95" y2="0" fill="rgb(0, 0, 0)" stroke="rgb(66, 66, 66)" stroke-width="1px" opacity="0.25"></line></g></g></g><g><g><line x1="0" y1="623.3333333333333" x2="1049.95" y2="623.3333333333333" fill="rgb(0, 0, 0)" stroke="rgb(153, 153, 153)" stroke-width="1.5px"></line></g></g><g><g><line x1="95.45" y1="0" x2="95.45" y2="374" fill="rgb(0, 0, 0)" stroke="rgb(153, 153, 153)" stroke-width="1.5px"></line></g></g><g><g><g><g><g><path stroke="rgb(255, 112, 67)" stroke-width="2px" d="M96.61449,26.36174326141678L97.6692125,118.22009362280369L98.10351,86.29223824789129L98.590305,182.46600385134423L99.28709,72.80427617331348L100.346585,266.0815172145764L100.85247,132.8213273485502L102.40830500000001,187.8896111560365L102.580115,177.0785051646332L102.656475,59.821660593152046L102.9189625,154.22944193085038L104.70865,143.03867297867936L104.8041,150.76098276923102L107.3955675,203.8065453929206L108.30234250000001,208.96888768921298L108.41688250000001,245.10502252727747L110.16361750000002,204.18554075062275L110.91767250000001,166.9100687156121L111.0322125,161.95459629098576L112.46873500000001,197.5876486798128L112.888715,253.44756459196412L115.1174725,245.22960306455695L115.4038225,152.60040337219834L117.23169,239.06251815458143L119.74202500000001,175.09203772991896L120.2049575,237.04984004298848L120.562895,226.20471532146138L120.72038750000002,230.56660154213512L121.04014500000001,169.62564577658975L121.479215,256.9768336849908L122.49575750000001,203.71238433445495L123.28322000000001,254.17980905001366L123.445485,237.4912708004316L123.99432250000001,216.50493622447055L124.07068250000002,291.9931369461119L124.33794250000001,198.64530609299743L125.4165275,208.1569952828189L125.679015,247.3710414891442L126.80055250000001,242.6347170273463L127.56892500000001,236.29835120091838L128.141625,226.1619887252649L128.8145475,268.18400245159864L130.0649425,278.943703006953L130.93831,244.09194938838482L131.07194,237.93810043483973L131.93099,176.50619518011808L132.34142500000002,204.79558482145274L133.563185,292.1851744192342L134.21224500000002,278.4014061341683L135.0187975,207.05574048683047L136.24533,188.12994825964176L136.273965,263.3399326602618L136.579405,260.61628631005686L136.7750775,225.36051673193776L136.942115,282.36702639609575L137.08529,246.9810451939702L137.21892,160.90907183786237L137.33346,245.97325482716167L137.343005,286.3198170686762L139.12792000000002,188.06193982561433L139.60517000000002,215.99427793174982L139.7912975,232.6284500708183L139.9631075,237.066443040967L140.11582750000002,232.6258377109965L141.80052,235.9958109073341L141.9961925,235.87514890978736L142.3970825,275.31040394057834L142.669115,220.48242821047705L142.7788825,279.540569173793L142.93160250000003,250.1542496432861L143.0747775,160.37963358064496L143.4756675,252.3564689730605L143.604525,267.61114096889895L143.7524725,223.6080877110362L144.0865475,271.7349541311463L145.2987625,254.96798703446984L145.64715500000003,214.40178338438272L146.2437175,263.0621517325441L146.2532625,226.22512075429165L146.5491575,231.34911941364408L148.05726750000002,289.8115262327095L148.510655,305.865377150476L151.85617750000003,269.36217673122883L152.0852575,251.47587150335312L152.8488575,247.69520631680888L153.08271000000002,225.47342872867983L154.409465,262.6718071227273L154.61945500000002,330.5145885112385L154.99171,276.0036371586224L157.03911250000002,228.33355636646354L158.94334,239.08402658378088L159.34422999999998,262.7610337237517L159.983745,224.5843556026618L160.117375,258.80380203947425L160.556445,237.46845619132125L160.5803075,253.90646913399303L161.32004500000002,261.15559348215663L161.5443525,280.08881642172736L162.1265975,272.68942333137L162.484535,267.3536203429103L163.16223000000002,229.87734491626424L163.52971250000002,223.5149135440588L163.98787249999998,236.08515361323953L165.3432625,269.4425213088592L165.8205125,207.4394380922119L166.3263975,253.60784738014144L166.38844,259.2258723080158L167.3477125,278.0030212613444L167.371575,251.74918239315355L167.9204125,259.79763079434633L168.80809750000003,228.26621553550166L169.94872500000002,248.8647888352474L172.9601725,275.70925323292613L173.68082,232.40973750129342L175.790265,245.389015066127L175.942985,284.34336367994547L176.0241175,257.80416804055375L176.13865750000002,291.0092932110032L176.3295575,248.42074571798247L181.93247250000002,260.2135475041966L181.9706525,255.33856478830182L182.0088325,163.19273874163628L183.28786250000002,261.64445308347547L183.6505725,248.00204249098897L184.97732750000003,237.16577076663577L185.0059625,318.13394771267974L185.14913750000002,205.8697001015147L186.6477025,290.7594935595989L187.1249525,200.45149167378747L187.64992750000002,228.88668001939857L187.9267325,246.47282510374987L188.5185225,239.0841136624416L188.733285,236.68161341299617L189.0721325,255.29067152490222L190.14117249999998,298.81995881597203L190.8952275,218.53711995606625L193.849405,278.0346308151881L193.983035,225.65304297953844L194.9136725,231.29010910789174L195.51978,222.03840777277946L195.84431,224.43571232880157L195.92067,273.39391872286797L196.28815250000002,270.8614100329578L196.94675750000002,215.7262207878133L197.15674750000002,281.6544907415907L198.89871,283.8253617535035L200.74566750000002,265.16318565855426L201.218145,307.68076404308283L203.795295,219.36166779448592L205.5563475,245.53704878936213L205.723385,256.65983833372593L207.155135,246.95521185795468L207.60375000000002,224.08670105660957L211.79400500000003,335.59147761513793L212.2283025,222.0926287521919L213.41665500000002,210.68851708124083L213.607555,272.86874732002616L213.94163,260.121911726892L214.46660500000002,281.9298915192485L214.71954750000003,220.95169511313242L215.29702,290.9575104340911L216.88149,231.8241044816872L217.8598525,307.18676680078113L218.1748375,301.0790695374211L219.1961525,269.66494923457503L220.98106750000002,283.18405644347274L221.3342325,273.36689531182253L222.61803500000002,254.6634729579091L222.8423425,191.09767609586322L223.42936,238.26331020643318L224.37431500000002,250.25772811844945L224.44590250000002,257.79743395745754L224.80384,253.31375371664762L225.77743,259.55410080651444L228.08732,267.1564742550254L228.2829925,252.17241371050477L228.574115,295.77969445536536L229.10863500000002,234.58597836395109L229.56679499999998,285.796038924406L232.86936500000002,265.04452647020423L233.71887,207.74607108285034L233.77614000000003,316.216098262618L235.331975,233.5324426740408L236.19102500000002,253.9910225135585L236.54896250000002,246.8133897458514L236.81145,280.3899924829602L236.88781000000003,291.7854253140589L237.0834825,261.89701022580266L237.81844750000002,247.07250681395334L238.02366500000002,234.141557905823L238.8874875,255.79154798140132L239.0068,234.20262907321256L240.05675000000002,265.9959769435227L241.98006750000002,301.10676055153215L243.0109275,244.37959923098487L243.2018275,222.48770463590824L243.24000750000002,281.7816836386919L243.42613500000002,260.4961467844745L245.19196,229.10388322547078L245.354225,256.61345443377894L246.54735,255.1362520332138L247.77865500000001,252.49422741432988L247.9456925,206.44084903722012L248.05546,170.23084246863925L248.236815,268.4136869323751L252.04049750000001,270.3806487470865L252.10254,279.5917714263002L254.27402750000002,316.694073031346L254.88968000000003,297.92345497757196L256.2880225,310.8007053782543L256.77481750000004,258.5359190528592L257.06594,297.5305560603738L259.92944,257.7483796452483L262.2536475,265.56508270402753L262.3300075,287.19344824552536L263.15565000000004,245.4091882891953L263.5231325,170.65140337372821L264.2867325,251.0278808201353L264.7639825,226.44876778125763L265.11714750000004,269.3984014540911L265.84734,182.14151973525685L266.8447925,269.3282160535455L267.01183000000003,244.49442695826292L269.6510225,302.29892546931904L270.572115,281.20975099503994L271.51229750000005,269.5629220704238L271.5695675,271.07214039191604L272.01341,279.8204690155884L272.3427125,254.22976317505044L272.4095275,250.43507832412922L272.58611,256.6547877714038L272.901095,179.5226870663464L275.249165,266.3870472088456L275.6071025,282.3045619701346L276.5043325,312.93465503801906L278.647185,321.58409132932627L278.65195750000004,271.8044719286263L278.75218,208.6970281104247L279.1292075,285.3247982387742L280.6468625,313.75888358801603L280.80912750000005,232.67643041287863L281.0048,254.06634555508697L281.090705,304.129667232434L281.6968125,295.125733713309L284.38373,225.20513937498134L284.97552,256.9629881779353L286.874975,286.4026288750271L287.47631,240.5606774861614L287.5383525,198.6700074064235L287.93447,184.65251999596757L288.33536000000004,250.33110640322172L288.92715000000004,258.53490313515067L289.2946325,225.66900740067166L290.84569500000003,276.04851169511676L291.4708925,103.20065011580787L292.907415,302.0543215113382L293.3798925,284.7058431183299L293.68056,149.26877381280065L293.7044225,251.1405896333357L293.82373500000006,259.12886667996645L295.74228000000005,224.7570616131028L295.95227,304.4651522859931L296.5201975,282.950975894928L298.0951225,318.3811640304824L298.4482875,299.68047014127177L299.9754875,256.08752834921086L300.43364750000006,287.02248380829894L301.326105,255.04960876579088L301.7699475,207.316599128147L302.08016000000003,247.71596006428206L303.5834975,297.1300522734722L304.3757325,268.4722618448238L306.6569875,279.0895017112295L306.7906175,255.04145239790284L307.10560250000003,295.7509584973256L307.6496675,271.18650369967025L307.93124500000005,253.21013011038303L308.83324749999997,349.4446475928029L308.89529000000005,270.36898020654917L308.923925,222.4372570651273L309.0718725,300.32967058320844L310.09796,274.12735325594747L317.33307,183.00696551799774L319.232525,268.0137926960985L320.0581675,236.7679954444369L320.07725750000003,199.0195121243596L320.15361750000005,268.7504781658451L320.29202000000004,295.18021592870355L320.51632750000005,255.93995904549956L320.607005,253.89482961967587L321.20834,299.23056372751796L322.7403125,279.7450879216194L324.5252275,285.6050754214327L325.4320025,260.95380319903296L325.70880750000003,279.4918922024469L326.36741250000006,200.82656849175692L326.963975,302.5682017145058L327.5605375,201.19505635773146L327.9518825,266.99337592348456L328.5532175,307.5185655243695L330.0899625,190.74274347474181L330.80106500000005,251.7003022382657L331.6076175,238.27579148113728L332.89142000000004,310.20555175840855L333.42594,251.8362900801003L334.12272500000006,302.1867101018628L335.3206225,339.1480603814125L337.1246275,245.3951976510386L337.40143250000006,234.881291128695L342.6511825,317.4581592530012L343.285925,303.5882121200363L343.31456000000003,277.4875736422837L343.4815975,276.56726830328506L343.6820425,274.04663133745396L344.71290250000004,324.45580042898655L344.87516750000003,236.48046170671785L345.29992,273.83471090346575L345.35719,251.50864210600656L345.5242275,290.06010678286356L346.79848499999997,262.4057527879874L348.2350075,162.3688004538417L348.78384500000004,257.63662869731587L349.604715,254.88558159520232L351.3657675,262.932694790264L353.3606725,278.8074539291362L355.35080500000004,260.18309899916255L355.99032,310.97210520878434L356.820735,282.5914571310083L358.3145275,339.5640641699235L358.64383000000004,316.731342698137L359.6890075,269.3668209264676L360.3189775,254.18898133561015L360.73418499999997,234.8094222073754L360.9394025,320.0129600800574L361.36415500000004,282.00257317473495L362.624095,302.74122701336944L364.0987975,261.49122366681695L365.0055725,241.10671874135733L367.15797000000003,246.1089814330141L367.2868275,287.32293421402574L367.797485,302.29335243503255L369.44877,245.11355623602867L369.63489749999997,305.39851942410075L371.26232000000005,256.7888889089227L371.768205,244.230636668702L371.98774000000003,255.76124460746848L373.066325,271.3619091485938L374.14968250000004,296.2112562979261L374.1878625,259.3191625798742L375.1900875,240.86493032673997L375.3809875,269.04735834648216L375.91073500000005,278.7928537403544L376.3832125,285.09607162326574L377.2995325,261.17997550716007L379.34216250000003,175.99469512701035L379.6666925,193.38032708192867L381.8047725,237.663309207807L383.1363,219.2524131014943L383.85694750000005,205.03542847931385L386.372055,173.5588727767269L388.414685,303.23606601605815L388.47195500000004,382.9302676425626L390.113695,275.81151260683936L390.88684000000006,273.62235507617396L391.297275,219.7184580937028L391.59317000000004,303.4348956247171L392.98674000000005,296.00911770015955L393.18718500000006,223.34400715927285L395.25845,203.62362215295434L395.96477999999996,275.34718016162515L398.82828,257.0156417414546L399.085995,298.96445134033763L399.3962075,301.01663413768017L400.4366125,238.40582894782227L401.3242975,285.30360909799737L403.2714775,226.6842284798622L405.156615,301.2671304183702L405.31888,314.569440788279L407.2135625,269.23492578168714L407.6526325,265.94338143244386L407.7862625,289.6723745328685L408.32555500000007,298.0399081731836L408.92689,272.6566237024963L409.10824500000007,241.33283299704397L409.6761725,226.8071835488081L409.75730500000003,284.5438768093785L410.1152425,283.1929094406466L410.22501,341.07502406463027L410.3729575,252.77200834204757L411.437225,196.60061206047737L411.532675,256.32110234349966L411.59949,326.5847575788697L411.82857000000007,233.38879191006225L412.86420250000003,305.8942872658372L413.54667,309.72406481703126L413.60394,238.89857806265354L413.68030000000005,287.8769576797883L413.976195,250.50871784488362L416.54857250000003,313.4665895501773L417.6462475,299.9169177313646L417.70351750000003,197.22673665732145L419.18776500000007,271.0069475012521L419.493205,259.9152740649879L419.951365,270.4622995046278L420.87723000000005,245.487413952748L422.070355,306.49930980056524L422.15626,235.45914512127638L422.7814575,258.3028385043144L422.93417750000003,335.40640643487376L423.92208500000004,244.2405055835843L425.06748500000003,269.027446359396L425.86926500000004,295.95643511042L426.94785,240.44036380325758L427.2771525,331.95646600176894L427.80690000000004,327.7000610654553L427.9739375,245.77210312088334L428.675495,283.5097886870305L430.4556375,261.97123027096194L431.2431,286.4009743804733L432.33123000000006,316.6267612266044L432.3550925,219.36735693365335L432.5650825,262.9507490992546L433.7009375,255.01538685212535L434.0636475,289.05942784001434L434.097055,286.08156985292834L434.6840725,309.47931572794914L435.0563275,251.88586686427396L435.280635,292.20906299849355L435.51926000000003,261.3636824550728L437.609615,222.21030104905367L438.27299250000004,283.06812571982545L440.44925250000006,330.5423666040103L441.69487499999997,264.2750703978042L441.8619125,299.96231473982334L444.43429000000003,303.48537222171825L444.81609000000003,323.4682123114666L444.997445,259.3084809308251L446.00444250000004,315.4127105387549L446.5389625,227.45168174306554L447.116435,347.0834226285418L447.84185500000007,276.26861752321327L448.2093375,283.0658036222061L448.242745,297.435059795777L448.34296750000004,355.93607148776454L448.78681,245.15732777615392L449.53132000000005,253.6183548718691L452.22301000000004,274.0601285298666L453.41136250000005,270.1706150174141L453.91247500000003,274.077195947369L454.084285,329.5819760548572L454.26564,253.0310383314888L454.36586250000005,238.46869974086684L455.14855250000005,278.01088736703L455.49694500000004,260.3516252338886L455.7594325,254.90798983722925L456.0839625,234.34375455603004L459.20517750000005,304.68639013667905L460.69419750000003,249.45413721104467L461.9445925,337.3997821100056L462.98977,241.83138735592365L465.595555,284.89521017918986L465.83895250000006,283.03880923738086L466.77913500000005,253.54012920831644L467.466375,240.4322074353695L468.12975250000005,258.92530579740804L468.39224,221.32189552610123L468.592685,266.1475518656274L468.7979025,255.4277333368858L469.38492,215.06526472667855L469.7237675,347.74170827741426L469.7810375,241.59226935356855L470.520775,296.7716945583622L472.76385,305.01130964607L473.327005,348.18496768673265L473.575175,269.831298502783L475.121465,328.0553420012196L476.6057125,319.2920358479023L479.50739250000004,227.20652628690004L479.60284250000007,259.00678239762783L484.95758750000005,264.00184658666456L485.4634725,219.17944118380547L489.095345,298.7191217268507L489.4532825,216.6356412942211L490.36483000000004,326.93896454448503L492.28337500000004,261.0176318573455L492.40746,248.45589647069573L493.11379,301.4420714477698L495.3616375,272.7563868214687L495.88184,246.72604984914267L496.2875025,283.36082612474763L496.52612750000003,260.3741495807966L497.6810725,209.2409214253227L500.26299500000005,254.31991861512267L500.43480500000004,296.2894819614788L501.7186075,275.0583982964357L503.11695000000003,259.94984429329634L503.9998625,204.92332921673858L504.85414000000003,278.90283408885205L506.944495,291.9399899368485L507.80354500000004,315.2659249429902L507.89422250000007,281.67718924582005L509.025305,257.98244708528125L509.30211,312.7019808565577L510.0227575,261.354713353018L510.15161500000005,313.26648278782767L510.36637750000006,284.62999760483706L512.1894725000001,293.79412683347863L513.4016875,311.1022007279098L513.94098,239.10576722274226L514.446865,256.4717484265566L514.9957025,306.86930702999234L515.8929325,273.4947558119893L516.49904,299.861709860464L518.0882825,220.53435611849034L519.40072,301.4464834332466L522.331035,292.864475051562L523.7961925000001,302.50530189524096L525.18499,330.81422618279856L525.6479225,325.7589616129796L525.79587,294.0185575683912L525.8770025,272.8206508730849L527.7287325,322.73820287237567L527.76214,244.87173879519105L528.821635,281.2148596098026L528.897995,237.96857796609402L529.27025,233.2580868403117L529.7140925,252.43228546033305L531.7519500000001,302.4496586310367L533.2648325000001,321.2084049607317L533.804125,297.28685191522044L534.4865925,254.46330814311904L535.4124575,286.66720287253463L535.7274425,263.9902070723474L535.732215,244.36299623300636L535.7560775,274.49018100897473L535.789485,302.46167548621696L538.1041475000001,272.9248550037543L538.4477675,262.1113978885114L540.9867375,287.0095961665114L542.7048375,319.24692910164595L542.9148275,192.51920620600384L542.9530075,295.8550174968938L544.0888625,310.86929433668655L544.1270425000001,251.70514961704612L544.8524625000001,273.2257408027848L546.3128475000001,269.602978254358L548.2313925000001,291.23282413308823L549.23839,247.5132119158904L549.9685825,270.8942386880517L552.12098,291.87560978035134L552.550505,259.77992479999864L554.31633,249.3749246560037L557.8241174999999,317.6813708866636L558.4493150000001,276.70586850494146L562.6825225,303.906629756093L565.7273775,291.902894427379L566.2332625,250.13218971590203L568.1708975,340.6302843180796L568.25203,317.9365984412531L568.4142949999999,330.1167551365992L568.5192900000001,295.7632656147083L569.5549225000001,294.1480145106713L569.93195,262.03096623222035L573.8454,266.43926537906134L574.4133275,311.8866343299548L574.7569475,263.92434657861793L575.8403050000001,266.790395565331L576.49891,293.08234586069983L577.157515,294.1195107623935L577.94975,255.3329046753546L578.3076875,252.38619182258844L578.9758375,229.4530976812045L579.8635224999999,282.7470957239469L580.5364450000001,233.0985297076404L582.49317,266.4740678171317L583.0133725,297.8249980385105L583.037235,305.92017865429324L583.4238075,300.9429655907055L584.6742025,234.085827562958L586.091635,284.98446580643457L586.7741025,283.9456464101871L586.7931925,272.56890646492445L588.14381,291.8418813124299L588.9503625,283.32727181414765L589.4419300000001,259.1848872850339L590.4537,261.74883137146634L591.3938825,316.38462449734413L593.4126500000001,241.17539477845037L593.4460575,289.5694765821099L593.7610425,282.26682788381976L593.9948949999999,303.3259021677077L595.97071,276.9326793899139L596.4050075,292.44983549540245L596.9299825,284.95329164589447L597.24974,268.47693506628275L597.984705,257.9535950223605L599.06329,250.1145417739948L599.40691,320.420168923835L599.4880425,318.4610732148091L600.0082450000001,307.06831079597276L600.1752825,283.6476632331809L600.3709550000001,269.6237610280514L602.337225,285.92044530436397L602.82402,277.925550279518L602.9624225,326.75813119237625L603.0674175,200.0776629832884L603.6305725,186.63640409708023L605.6350225000001,281.66375010584795L605.9500075000001,232.07962229847908L606.4224849999999,280.97725097090006L606.4749825,254.10901409884298L606.66111,308.0335487239063L607.50107,313.0900614211957L609.0903125,288.7431581442555L609.839595,291.3987380079925L610.1164,259.19643972069025L610.25003,316.9830000276367L610.65092,332.29137053092325L611.20453,280.6876853977641L616.32065,299.03960022454464L616.62609,220.45467914392555L618.0339775,306.87485103805864L618.2439675,240.15541339914006L620.0145650000001,265.10983546574914L620.549085,277.03636104861897L620.65408,276.3074546058973L622.3530900000001,289.7058998172482L622.81125,317.9285872044663L625.0590975,285.6050173689922L625.2595425000001,256.55560517683625L626.2283600000001,259.52609050398075L626.4622125,268.3943554696938L626.6912925,286.55231709281605L626.8344675000001,329.28791141758364L628.09918,267.35710348933935L629.7934175,345.17393272990984L631.3063000000001,286.50848750025034L631.4160675,302.5743842994174L631.53538,323.0629772506654L631.9887675,218.13258152455091L632.10808,302.43546480933827L632.5089700000001,299.9881771020591L632.5805575,323.9354764049252L633.0864425,293.5538477823138L633.091215,301.76260799790424L634.4991025,313.6973480011026L636.9139875000001,263.72839056576294L640.2451925,249.8070379967491L640.48859,275.64896577348316L641.2474175,294.19515309234464L641.2951425,306.6702742377917L642.273505,303.75772524625063L643.1850525000001,272.13629967843497L643.4427675000001,259.3954434866707L643.5191275,280.96230246747535L645.6619800000001,294.575251446416L645.996055,308.6764504760504L646.015145,266.1090630975863L646.3253575,301.91456026087207L647.3132650000001,302.0777456710736L647.4468949999999,330.3972355027994L648.1102725000001,346.37849184374016L649.814055,339.25824391345185L649.8188275,337.8208074346185L650.2722150000001,312.38768494377535L650.9976350000001,311.2765902591249L651.8948650000001,293.96099857365095L651.913955,266.11051440859836L654.5817825,270.9830589219928L655.0494875,262.5833642296493L657.47869,337.4616369853417L660.5092275,291.1502445364992L661.3491875,298.75177622462314L661.71667,307.61449718226993L663.4968125,296.28983027612173L663.7879350000001,250.90974410374963L664.3463175,262.5134981175264L664.6135775,234.80733231951797L665.8019300000001,298.5757902512948L667.548665,309.6065666774909L669.476755,240.42974020664894L669.7965125000001,332.3142722186943L670.59352,211.32912576198578L672.57888,302.9402888317903L672.7745525,298.6219999939203L672.8938650000001,311.1692803228895L673.5381525,334.39342037464183L675.6475975000001,254.34331374863785L676.0866675,275.155636134247L677.5947775000001,245.12534088144702L679.9046675000001,312.5768197948734L680.5155475,316.6504756485423L680.778035,308.17870885133743L682.0141125,288.87354392558336L683.813345,286.54000997543335L684.634215,288.32799611613154L687.1159150000001,270.94573120276135L687.9415575,299.71843643734854L688.09905,269.73321890458465L690.1034999999999,319.0460096051296L691.4254825,281.1429616622627L692.41339,286.8923882891735L692.5374750000001,266.8738459485273L694.22694,325.41749715805054L695.1528050000001,333.6764437084397L695.7970925,338.6372569575906L696.9138575000001,267.728842291981L697.4483775,300.4898953189453L700.2021100000001,281.75390554592013L700.8845775000001,278.6756748892367L701.5384100000001,218.0510178456704L703.6430825,278.6711467988789L704.4734975,251.23861117909354L708.4776250000001,325.1300504989922L708.6160275000001,283.69157990440726L709.4989400000001,280.7165955131253L709.72802,233.843719859918L710.1145925000001,323.787558786571L710.7302450000001,279.06297174592817L712.4626625,293.7757822622856L712.5581125000001,254.57038586959243L712.5772025,216.80381921430433L712.6774250000001,237.54853953296941L713.5889725000001,272.55671545242274L714.2237150000001,259.3157374858856L715.34048,321.10544895753264L717.316295,272.9551874039074L718.7814525,260.7022039219737L718.9532625,299.4905225560069L719.072575,248.15242733806372L720.657045,268.00624587883556L721.4970050000001,283.59640292823315L721.6449525,232.19209890191757L723.30101,246.32447209209204L724.0502925,281.84217428167665L725.0572900000001,238.86676532526815L725.4390900000001,251.24894451349974L725.9306575,261.66369746749604L726.1883725000001,249.30363625908893L728.5364425,249.3735894498726L730.0540975,284.4769423455L730.23068,297.6733650639653L731.0467775000001,267.2717954280476L733.1848575,290.80808345228434L734.3159400000001,295.7200165465474L738.76391,279.5783903387686L739.4988750000001,283.1432455778122L739.7613625,326.11427157496416L739.918855,219.04034753640497L740.2242950000001,257.0015349984169L740.4820100000001,274.26731768995523L740.5440525,264.1355123308798L741.5653675000001,278.07311958322924L742.5198675,339.97228893140954L747.0966950000001,315.08067960540455L748.15619,312.3716334439814L749.1870500000001,304.0972739706437L749.5927125000001,309.0957052012285L751.4158075,252.1672760695219L751.9121475000001,264.43294400970143L753.6207025,304.33314103633165L753.9261425000001,278.97386124978465L754.4129375,257.82976916680735L754.6706525000001,232.48558301478624L754.7661025000001,290.55471357579034L755.0524525,240.96774119883776L756.1214924999999,308.41782685369253L758.17844,292.4882081585626L759.180665,325.9336994588375L759.2236175,244.59300000220537L762.7886750000001,244.24195689459646L764.1679275,273.3601902549466L764.3301925,265.59233832483494L764.735855,255.93139631052816L765.232195,309.0717585695287L765.27992,269.40525164206827L765.4230950000001,277.01740692680085L765.8669375000001,303.9928376302123L766.67349,270.77203830083215L767.6995775,232.65773752704263L769.8281125000001,257.99121300379437L769.871065,300.47172490507364L769.88061,272.2006798349321L770.405585,299.6931255732974L770.6633,312.1331249922514L770.8255650000001,291.35850766673684L771.44599,306.9564727693796L771.5557575,216.99672747403383L771.8946050000001,300.2619233851632L775.3260325,276.5255866510173L775.5455675000001,251.99758878598612L776.1325850000001,278.16905124112964L778.35657,312.3001418635249L778.4186125000001,282.54675675183535L779.492425,276.8719855633875L780.1653475,287.6222816233834L782.1602525000001,246.37907041236758L783.8306275,252.90518064051867L785.372145,266.1142587910096L786.29801,286.4201607120534L786.3027825,250.54877402881783L786.4555025000001,308.09923506031436L791.156415,317.3511976314088L791.6623000000001,307.22066942602396L792.235,284.22917452951276L793.065415,253.3729091535012L793.53312,269.7826505576571L794.535345,241.76912611350417L795.6043850000001,217.92202532291412L796.2152649999999,308.145096488297L796.4204824999999,291.1693437894186L798.21017,253.98751034090918L805.435735,299.16467420756817L805.6075450000001,288.6016843467951L807.0917925,288.16504291569197L807.2636025,308.79841865350807L810.96229,287.1463967425128L810.9670625,267.8099996037781L811.85952,218.37149634336436L815.6822925,308.5682697532078L815.8779650000001,267.2470941146215L816.0306850000001,277.5918938778341L816.4506650000001,308.13125098124146L816.4649825,290.68910497551167L817.39562,290.96227073421085L818.436025,277.1375464523832L818.4503425,324.3291009776294L818.7748725,278.9609736079971L820.0109500000001,291.1718400443594L820.41184,290.9553624937932L821.04181,266.8366053079566L821.38543,322.9009238630533L821.70996,271.5921161013345L821.78632,271.50222189724445L822.2063,339.3421296899518L822.3494750000001,327.1909411624074L824.4923275,308.1180440510313L824.5161899999999,271.74952529370785L824.8073125,263.07062738885486L825.3466050000001,315.9133257592718L825.957485,279.9575598537922L826.46337,293.5205837339163L826.8881225,296.09979561219615L827.408325,224.02441078796983L828.458275,289.14383608847857L829.9329775,266.75663807118934L831.4124525,343.43749715636176L832.9205625000001,278.52087805668515L833.822565,284.78999013081193L834.2711800000001,292.4356997261445L834.490715,314.188790936023L834.6959325,302.33340861896676L834.9536475000001,238.8050846072535L839.530475,248.0720247079929L839.893185,251.2305999423067L841.5683325,301.8603102552394L841.5778775000001,278.94895675281685L842.3892025000001,296.56798854470253L842.97622,276.6183544509113L843.5298300000001,353.53223603218794L844.8518125,265.487002171576L846.059255,221.99213997771346L847.3048775,248.1804086143772L848.3452825,222.40518309175968L851.7862550000001,308.6079776224991L852.4973575,328.0948757131895L853.59026,278.269046569864L855.4229,303.9783535463115L855.7474300000001,344.61033061146736L857.1553175,305.99187341829145L858.2339025,310.70332240934175L858.43912,244.5458904467523L858.8925075,327.595392515262L859.4079375,285.79252675175667L859.9042775,273.1516658887267L861.0544500000001,276.14923267935717L861.4219325,231.47639938940608L862.495745,246.45781854788464L864.2854325000001,310.6685199712714L865.893765,290.75470423325896L865.97967,298.172151632607L867.2109750000001,214.66087142626446L868.0843425,295.0647786508004L868.2132,260.64542863518L872.613445,313.5797337566813L872.9618375000001,298.0683828952412L873.1766,323.2595428141455L873.243415,296.1375587247312L873.3436375,270.738338859131L873.73021,349.7118629763524L874.3744975000001,326.6637669503689L876.0448725000001,238.70384115104878L877.07096,306.31777981917065L877.9968250000001,215.8750091927747L879.43812,267.4981128672759L880.0251375,209.71021735419833L880.3448950000001,271.16929115106666L880.5692025000001,292.83031119033694L881.74801,296.6082769383987L882.85523,292.6787362682323L883.7572325000001,314.27357652535045L884.124715,297.5206581192712L885.6280525,290.96131286894285L885.8905400000001,290.1277669022481L886.9452625,274.66979525983334L888.9497125,306.3005382443468L891.4886825000001,245.22701973095536L892.2141025000001,250.18742661302292L892.2809175000001,297.3356159652273L893.1781475,308.55001226067543L893.364275,312.65191062663996L893.4167725000001,308.0519223213196L893.67926,342.57164500653744L893.707895,304.66224032143754L894.2805950000001,312.16447331011295L896.2611825,341.38040892779827L897.0343275,318.5004617956778L898.90992,278.95688091094297L899.8691925,306.54197834432125L900.01714,275.3483121842146L900.217585,285.3530988035103L900.8141475000001,305.4869913433989L901.878415,315.34098674853647L902.1122675,343.71196909497183L902.9522275,312.4654171615839L902.99518,221.8834077566862L905.2764350000001,300.44287284215295L906.22139,326.4001508181294L906.402745,270.9945533052087L906.6127349999999,318.154237040629L906.8752225000001,269.8161468158166L907.1520275,328.48983549202484L907.9442625,271.92449534932774L908.05403,272.9514430214962L908.5646875000001,327.47136347616714L909.14216,263.8085319598516L910.087115,282.55906386921805L910.11575,295.13328053057194L910.3400575000001,292.7203308418393L911.43296,280.31609172622365L911.75749,275.9197223559022L911.9531625000001,312.88409136235714L912.034295,269.2522544351717L912.1917875000001,248.72618863359094L912.740625,344.823383068045L913.179695,308.40749351928633L914.7116675000001,292.67272784064215L915.5898075,301.6997081786394L916.81634,273.35447208955884L918.3674025,267.2830285752813L918.658525,309.6449683668713L918.9735100000001,271.7876076946656L921.751105,322.73344257225597L922.2044925,248.59144891922676L922.4049375000001,274.7229422690968L924.404615,269.67769174526137L924.8818650000001,304.8314341592292L924.8961825000001,292.5221398100257L925.27321,315.58559070651734L925.8602275000001,246.37117528046173L927.06767,281.4713062656423L927.35402,286.91293885310495L927.88854,301.7574413307011L929.28211,320.503706385692L929.7259525000001,264.4979627430439L930.3129700000001,312.9853638447821L930.761585,333.63705512757105L934.2693725,245.16560024892294L935.0711525,337.6099029183388L935.1856925,318.6665208016833L935.96361,275.72414368391037L937.2903650000001,254.06007589151466L938.283045,267.5726522008578L940.592935,342.23610190053785L943.895505,302.7083112796148L944.525475,303.1767073956629L944.7879625,334.9696198726694L944.8261425000001,312.17643211285275L945.1268100000001,347.59294889867306L945.7138275000001,267.52162410567206L946.1433525000001,249.8544668406248L947.0358100000001,262.5694896963736L947.2410275000001,309.9000798165798L947.7230500000001,187.2096138944229L947.770775,300.17783442512155L948.305295,284.7417775789897L949.8277225,277.2638685628772L950.2095225,271.0423885161678L950.939715,324.2988846823573L952.1376125,283.5451135970652L952.91553,301.91116419310373L953.6266325000001,297.1940841153264L954.3520525000001,253.19703928505385L954.6574925,336.08219489455223L956.8051175,218.37709840387106L957.0962400000001,257.9659601921837L958.35618,312.81265783434117L958.4754925,314.84608969340724L959.0816,272.9584093143543L959.7449775,269.9517282905678" style="fill: none;" fill="none"></path></g></g></g></g></g></g><g transform="translate(56, 374)" clip-path="url(#clip_1)"><clipPath id="clip_1"><rect width="1049" height="26"></rect></clipPath><g><g><line x1="0" y1="0" x2="0" y2="5" style="visibility: inherit;" fill="rgb(0, 0, 0)" stroke="rgb(204, 204, 204)" stroke-width="1px"></line><line x1="95.45" y1="0" x2="95.45" y2="5" style="visibility: inherit;" fill="rgb(0, 0, 0)" stroke="rgb(204, 204, 204)" stroke-width="1px"></line><line x1="190.9" y1="0" x2="190.9" y2="5" style="visibility: inherit;" fill="rgb(0, 0, 0)" stroke="rgb(204, 204, 204)" stroke-width="1px"></line><line x1="286.34999999999997" y1="0" x2="286.34999999999997" y2="5" style="visibility: inherit;" fill="rgb(0, 0, 0)" stroke="rgb(204, 204, 204)" stroke-width="1px"></line><line x1="381.8" y1="0" x2="381.8" y2="5" style="visibility: inherit;" fill="rgb(0, 0, 0)" stroke="rgb(204, 204, 204)" stroke-width="1px"></line><line x1="477.25" y1="0" x2="477.25" y2="5" style="visibility: inherit;" fill="rgb(0, 0, 0)" stroke="rgb(204, 204, 204)" stroke-width="1px"></line><line x1="572.6999999999999" y1="0" x2="572.6999999999999" y2="5" style="visibility: inherit;" fill="rgb(0, 0, 0)" stroke="rgb(204, 204, 204)" stroke-width="1px"></line><line x1="668.15" y1="0" x2="668.15" y2="5" style="visibility: inherit;" fill="rgb(0, 0, 0)" stroke="rgb(204, 204, 204)" stroke-width="1px"></line><line x1="763.6" y1="0" x2="763.6" y2="5" style="visibility: inherit;" fill="rgb(0, 0, 0)" stroke="rgb(204, 204, 204)" stroke-width="1px"></line><line x1="859.0500000000001" y1="0" x2="859.0500000000001" y2="5" style="visibility: inherit;" fill="rgb(0, 0, 0)" stroke="rgb(204, 204, 204)" stroke-width="1px"></line><line x1="954.5" y1="0" x2="954.5" y2="5" style="visibility: inherit;" fill="rgb(0, 0, 0)" stroke="rgb(204, 204, 204)" stroke-width="1px"></line><line x1="1049.95" y1="0" x2="1049.95" y2="5" style="visibility: inherit;" fill="rgb(0, 0, 0)" stroke="rgb(204, 204, 204)" stroke-width="1px"></line></g><g transform="translate(0, 8)"><text x="0" y="0" dx="0em" dy="0.95em" style="text-anchor: middle; visibility: hidden; font-family: Roboto, sans-serif; font-size: 12px; font-weight: 200;" fill="rgb(33, 33, 33)" stroke="none" stroke-width="1px">-20k</text><text x="95.45" y="0" dx="0em" dy="0.95em" style="text-anchor: middle; visibility: inherit; font-family: Roboto, sans-serif; font-size: 12px; font-weight: 200;" fill="rgb(33, 33, 33)" stroke="none" stroke-width="1px">0</text><text x="190.9" y="0" dx="0em" dy="0.95em" style="text-anchor: middle; visibility: inherit; font-family: Roboto, sans-serif; font-size: 12px; font-weight: 200;" fill="rgb(33, 33, 33)" stroke="none" stroke-width="1px">20k</text><text x="286.34999999999997" y="0" dx="0em" dy="0.95em" style="text-anchor: middle; visibility: inherit; font-family: Roboto, sans-serif; font-size: 12px; font-weight: 200;" fill="rgb(33, 33, 33)" stroke="none" stroke-width="1px">40k</text><text x="381.8" y="0" dx="0em" dy="0.95em" style="text-anchor: middle; visibility: inherit; font-family: Roboto, sans-serif; font-size: 12px; font-weight: 200;" fill="rgb(33, 33, 33)" stroke="none" stroke-width="1px">60k</text><text x="477.25" y="0" dx="0em" dy="0.95em" style="text-anchor: middle; visibility: inherit; font-family: Roboto, sans-serif; font-size: 12px; font-weight: 200;" fill="rgb(33, 33, 33)" stroke="none" stroke-width="1px">80k</text><text x="572.6999999999999" y="0" dx="0em" dy="0.95em" style="text-anchor: middle; visibility: inherit; font-family: Roboto, sans-serif; font-size: 12px; font-weight: 200;" fill="rgb(33, 33, 33)" stroke="none" stroke-width="1px">100k</text><text x="668.15" y="0" dx="0em" dy="0.95em" style="text-anchor: middle; visibility: inherit; font-family: Roboto, sans-serif; font-size: 12px; font-weight: 200;" fill="rgb(33, 33, 33)" stroke="none" stroke-width="1px">120k</text><text x="763.6" y="0" dx="0em" dy="0.95em" style="text-anchor: middle; visibility: inherit; font-family: Roboto, sans-serif; font-size: 12px; font-weight: 200;" fill="rgb(33, 33, 33)" stroke="none" stroke-width="1px">140k</text><text x="859.0500000000001" y="0" dx="0em" dy="0.95em" style="text-anchor: middle; visibility: inherit; font-family: Roboto, sans-serif; font-size: 12px; font-weight: 200;" fill="rgb(33, 33, 33)" stroke="none" stroke-width="1px">160k</text><text x="954.5" y="0" dx="0em" dy="0.95em" style="text-anchor: middle; visibility: inherit; font-family: Roboto, sans-serif; font-size: 12px; font-weight: 200;" fill="rgb(33, 33, 33)" stroke="none" stroke-width="1px">180k</text><text x="1049.95" y="0" dx="0em" dy="0.95em" style="text-anchor: middle; visibility: hidden; font-family: Roboto, sans-serif; font-size: 12px; font-weight: 200;" fill="rgb(33, 33, 33)" stroke="none" stroke-width="1px">200k</text></g><line x1="0" y1="0" x2="1049.95" y2="0" fill="rgb(0, 0, 0)" stroke="rgb(204, 204, 204)" stroke-width="1px"></line></g></g></g></g></svg>